<?xml version="1.0" encoding="UTF-8"?>
<svg version="1.1" xmlns="http://www.w3.org/2000/svg" width="697" height="319">
<path d="M0 0 C1.52487747 2.70612058 3.04471575 5.41490405 4.5625 8.125 C5.01995605 8.93509521 5.47741211 9.74519043 5.94873047 10.57983398 C8.09849937 14.42247987 10.16696713 18.24556661 11.94140625 22.27734375 C14.43306447 28.558208 14.43306447 28.558208 18.9609375 33.29296875 C21.3555667 33.82969598 22.6710678 33.77631073 25 33 C26.99872337 31.6716559 28.60297292 30.27580248 30.26171875 28.54296875 C32.34521734 26.69357112 34.38708858 25.91251591 37 25 C36.979375 25.99 36.95875 26.98 36.9375 28 C36.96553249 37.16951991 36.96553249 37.16951991 41.5625 44.875 C45.63773464 48.28083689 48.76962948 48.90823911 54 49 C55 50 55 50 55.11352539 51.85766602 C55.10567017 53.04380493 55.10567017 53.04380493 55.09765625 54.25390625 C55.09282227 55.53491211 55.09282227 55.53491211 55.08789062 56.84179688 C55.07532227 58.18854492 55.07532227 58.18854492 55.0625 59.5625 C55.05798828 60.46419922 55.05347656 61.36589844 55.04882812 62.29492188 C55.03700225 64.53001314 55.0205222 66.76497437 55 69 C54.37786621 69.04390869 53.75573242 69.08781738 53.11474609 69.13305664 C52.30086426 69.20387451 51.48698242 69.27469238 50.6484375 69.34765625 C49.84067871 69.41218994 49.03291992 69.47672363 48.20068359 69.54321289 C45.70605013 69.84697724 45.70605013 69.84697724 43.625 72.4375 C43.08875 73.283125 42.5525 74.12875 42 75 C41.01 75.66 40.02 76.32 39 77 C39.90723613 81.68738665 40.9547267 86.34193744 42 91 C38.20696275 89.99806563 35.28463659 89.18975773 32 87 C32 87.66 32 88.32 32 89 C30.35 89.33 28.7 89.66 27 90 C26.01 88.35 25.02 86.7 24 85 C23.36578125 85.16757813 22.7315625 85.33515625 22.078125 85.5078125 C11.87705153 87.73401362 2.25410793 86.3172273 -8 85 C-8.66 86.65 -9.32 88.3 -10 90 C-11.65 89.67 -13.3 89.34 -15 89 C-15 88.34 -15 87.68 -15 87 C-16.093125 87.495 -17.18625 87.99 -18.3125 88.5 C-22 90 -22 90 -25 90 C-24.33501617 85.61110675 -22.81242323 82.0188515 -21 78 C-22.0725 77.319375 -23.145 76.63875 -24.25 75.9375 C-28.23727484 73.07442638 -30.02648595 70.49961204 -32 66 C-32.25 62.5625 -32.25 62.5625 -32 60 C-33.2684375 59.814375 -33.2684375 59.814375 -34.5625 59.625 C-44.07462687 57.89552239 -44.07462687 57.89552239 -46.9375 55.125 C-48 53 -48 53 -48 49 C-46.68 49.66 -45.36 50.32 -44 51 C-43.46375 50.01 -42.9275 49.02 -42.375 48 C-40 45 -40 45 -36.9375 44.375 C-33.39821416 45.12803954 -32.94742296 46.09909102 -31 49 C-30.45472656 48.40832031 -29.90945312 47.81664062 -29.34765625 47.20703125 C-24.40699823 42.02989729 -19.65395599 37.79944449 -13 35 C-12.34 35 -11.68 35 -11 35 C-16.94 23.12 -16.94 23.12 -23 11 C-19.08372175 8.06279131 -15.28960039 5.97875699 -10.9375 3.8125 C-9.85758789 3.26045898 -9.85758789 3.26045898 -8.75585938 2.69726562 C-8.06169922 2.34986328 -7.36753906 2.00246094 -6.65234375 1.64453125 C-5.70862915 1.17043823 -5.70862915 1.17043823 -4.74584961 0.68676758 C-3 0 -3 0 0 0 Z M-9.5 7.3125 C-10.10714844 7.62123047 -10.71429688 7.92996094 -11.33984375 8.24804688 C-15.18117091 10.1919777 -15.18117091 10.1919777 -17 14 C-16.25944024 16.29987883 -16.25944024 16.29987883 -15.015625 18.74609375 C-14.57476562 19.66583984 -14.13390625 20.58558594 -13.6796875 21.53320312 C-13.20789063 22.49162109 -12.73609375 23.45003906 -12.25 24.4375 C-11.56550781 25.86932617 -11.56550781 25.86932617 -10.8671875 27.33007812 C-8.02176285 33.54790953 -8.02176285 33.54790953 -4 39 C-1.87728489 39.45831042 -1.87728489 39.45831042 0.44921875 39.171875 C1.29677734 39.11386719 2.14433594 39.05585938 3.01757812 38.99609375 C3.89865234 38.91488281 4.77972656 38.83367187 5.6875 38.75 C6.58017578 38.68425781 7.47285156 38.61851562 8.39257812 38.55078125 C10.59718985 38.3857301 12.79846902 38.20149283 15 38 C13.76076086 34.81258761 12.42490008 31.73563682 10.875 28.6875 C10.52179688 27.99011719 10.16859375 27.29273438 9.8046875 26.57421875 C9.53914063 26.05472656 9.27359375 25.53523438 9 25 C8.67 25 8.34 25 8 25 C7.731875 26.11375 7.46375 27.2275 7.1875 28.375 C6 32 6 32 3 34 C0.73828125 33.9765625 0.73828125 33.9765625 -1.6875 33.625 C-2.49574219 33.51414062 -3.30398437 33.40328125 -4.13671875 33.2890625 C-4.75160156 33.19367188 -5.36648437 33.09828125 -6 33 C-7.30890465 25.86052009 -7.30890465 25.86052009 -6.125 22.5625 C-2.76774836 20.09393262 0.92463649 20.17087478 5 20 C4.40165275 15.85701333 2.99335715 12.81805623 0.9375 9.1875 C0.38964844 8.21167969 -0.15820312 7.23585937 -0.72265625 6.23046875 C-1.14417969 5.49441406 -1.56570312 4.75835937 -2 4 C-4.51121594 4 -7.27390399 6.13800985 -9.5 7.3125 Z M6 21 C7 23 7 23 7 23 Z M-3 24 C-3 25.32 -3 26.64 -3 28 C-2.01 27.67 -1.02 27.34 0 27 C-0.66 27 -1.32 27 -2 27 C-2.33 26.01 -2.66 25.02 -3 24 Z M3 27 C4 30 4 30 4 30 Z M-2 29 C-2 29.66 -2 30.32 -2 31 C-1.34 30.67 -0.68 30.34 0 30 C-0.66 29.67 -1.32 29.34 -2 29 Z M1 30 C1.66 30.66 2.32 31.32 3 32 C3 31.34 3 30.68 3 30 C2.34 30 1.68 30 1 30 Z M30 48 C29.67 48.66 29.34 49.32 29 50 C29.66 50.66 30.32 51.32 31 52 C31.33 51.01 31.66 50.02 32 49 C31.34 48.67 30.68 48.34 30 48 Z M-37 48 C-37.99 48.495 -37.99 48.495 -39 49 C-38.67 50.32 -38.34 51.64 -38 53 C-37.34 53 -36.68 53 -36 53 C-35.67 52.01 -35.34 51.02 -35 50 C-35.66 49.34 -36.32 48.68 -37 48 Z M-32 52 C-32.66 53.32 -33.32 54.64 -34 56 C-33.01 55.67 -32.02 55.34 -31 55 C-31.33 54.01 -31.66 53.02 -32 52 Z " fill="#D2BB73" transform="translate(148,127)"/>
<path d="M0 0 C1.25554687 -0.020625 2.51109375 -0.04125 3.8046875 -0.0625 C19.65761589 -0.1289693 19.65761589 -0.1289693 25.11132812 4.66699219 C28.83946759 8.91686144 29.83167288 12.58581796 29.80078125 18.1875 C29.32387878 21.45768839 27.43672588 23.64752459 25.5 26.25 C25.5 27.24 25.5 28.23 25.5 29.25 C26.28375 29.930625 27.0675 30.61125 27.875 31.3125 C31.45794863 35.32199013 32.29688952 38.92850545 32.5 44.25 C31.70207873 49.97685263 28.8537985 53.39997701 24.51171875 57.0234375 C19.63149403 59.99895316 14.97845486 60.4934056 9.3515625 60.4453125 C8.69417084 60.4424826 8.03677917 60.43965271 7.35946655 60.43673706 C5.28111767 60.42563447 3.20321634 60.40054986 1.125 60.375 C-0.29296248 60.36495731 -1.71093179 60.35583373 -3.12890625 60.34765625 C-6.58608037 60.32572805 -10.04299642 60.29126818 -13.5 60.25 C-14.45717637 57.02565352 -14.62662717 54.12014801 -14.62939453 50.76293945 C-14.63254669 49.66532791 -14.63569885 48.56771637 -14.63894653 47.43684387 C-14.6369223 46.25756821 -14.63489807 45.07829254 -14.6328125 43.86328125 C-14.63376923 42.65053024 -14.63472595 41.43777924 -14.63571167 40.1882782 C-14.63639191 37.62706449 -14.63454846 35.06584906 -14.63037109 32.50463867 C-14.62500682 28.56750662 -14.6303285 24.63048794 -14.63671875 20.69335938 C-14.63605821 18.20833308 -14.63477756 15.72330686 -14.6328125 13.23828125 C-14.63483673 12.05293289 -14.63686096 10.86758453 -14.63894653 9.64631653 C-14.63579437 8.55816147 -14.63264221 7.47000641 -14.62939453 6.34887695 C-14.62859894 5.38609329 -14.62780334 4.42330963 -14.62698364 3.43135071 C-14.29014947 -2.35485478 -4.33383533 0.01737008 0 0 Z M-4.5 9.25 C-4.5 14.53 -4.5 19.81 -4.5 25.25 C-1.79105233 25.33144943 0.91541263 25.39070614 3.625 25.4375 C4.38554687 25.46263672 5.14609375 25.48777344 5.9296875 25.51367188 C10.89737498 25.57790921 14.15837795 24.93477251 18.5 22.25 C20.07897833 20.67102167 19.74543509 19.05637428 19.8125 16.875 C19.84988281 16.08351562 19.88726562 15.29203125 19.92578125 14.4765625 C19.70143807 12.12048611 19.70143807 12.12048611 17.77124023 10.62915039 C15.15218488 9.03879849 13.76896986 8.89867366 10.734375 8.95703125 C9.84492188 8.96669922 8.95546875 8.97636719 8.0390625 8.98632812 C6.65847656 9.0240332 6.65847656 9.0240332 5.25 9.0625 C3.84621094 9.08280273 3.84621094 9.08280273 2.4140625 9.10351562 C0.10912779 9.13879524 -2.19551005 9.19260034 -4.5 9.25 Z M-4.5 33.25 C-4.5 39.19 -4.5 45.13 -4.5 51.25 C-0.85956737 52.46347754 2.52055186 52.4724972 6.3125 52.5 C7.36147461 52.5309375 7.36147461 52.5309375 8.43164062 52.5625 C13.22122296 52.59834346 16.46415446 51.83197592 20.5 49.25 C22.94794742 45.57807887 23.21435887 42.51893972 22.5 38.25 C20.29259319 35.28141843 19.01402627 34.42134209 15.5 33.25 C13.94578271 33.16893314 12.38832973 33.14243102 10.83203125 33.15234375 C9.93935547 33.15556641 9.04667969 33.15878906 8.12695312 33.16210938 C7.19818359 33.17048828 6.26941406 33.17886719 5.3125 33.1875 C3.90194336 33.19426758 3.90194336 33.19426758 2.46289062 33.20117188 C0.14189992 33.21295355 -2.17905807 33.23088886 -4.5 33.25 Z " fill="#926128" transform="translate(242.5,141.75)"/>
<path d="M0 0 C4.10277882 4.71408111 4.77749462 8.83376116 4.70703125 14.8671875 C3.96095271 20.589949 0.79821939 24.2602932 -3.44921875 27.94140625 C-11.89358336 32.08080066 -21.5655973 30.18424036 -30.63671875 29.50390625 C-30.96671875 37.75390625 -31.29671875 46.00390625 -31.63671875 54.50390625 C-34.27671875 54.50390625 -36.91671875 54.50390625 -39.63671875 54.50390625 C-40.63671875 53.50390625 -40.63671875 53.50390625 -40.75697327 51.18174744 C-40.75475266 50.15360428 -40.75253204 49.12546112 -40.75024414 48.06616211 C-40.75016861 46.90503403 -40.75009308 45.74390594 -40.75001526 44.54759216 C-40.74485397 43.28407425 -40.73969269 42.02055634 -40.734375 40.71875 C-40.73296005 39.43279434 -40.7315451 38.14683868 -40.73008728 36.82191467 C-40.72626293 33.39747182 -40.71643337 29.97307116 -40.7053833 26.54864502 C-40.69516739 23.05652436 -40.69058928 19.56439691 -40.68554688 16.07226562 C-40.67481102 9.21612847 -40.65773559 2.36001938 -40.63671875 -4.49609375 C-37.51194162 -4.66711503 -34.38687083 -4.83207868 -31.26171875 -4.99609375 C-30.39160156 -5.04378906 -29.52148438 -5.09148437 -28.625 -5.140625 C-6.85853395 -6.26925657 -6.85853395 -6.26925657 0 0 Z M-30.63671875 3.50390625 C-30.97848657 5.99435348 -31.19630287 8.37640646 -31.32421875 10.87890625 C-31.37126953 11.5646875 -31.41832031 12.25046875 -31.46679688 12.95703125 C-31.65586147 16.14323458 -31.6555827 18.4473144 -30.63671875 21.50390625 C-23.23286269 23.41457878 -15.82321462 22.98200827 -8.63671875 20.50390625 C-6.23807919 18.62996909 -5.77365366 17.34885691 -5.29296875 14.3828125 C-5.1334228 11.95372548 -5.15393901 9.89147152 -5.63671875 7.50390625 C-8.96593247 3.99947075 -11.45235526 2.54729888 -16.26171875 2.37109375 C-17.72005198 2.36843256 -19.17840315 2.37125774 -20.63671875 2.37890625 C-21.3740625 2.37503906 -22.11140625 2.37117187 -22.87109375 2.3671875 C-26.88393516 2.28973213 -26.88393516 2.28973213 -30.63671875 3.50390625 Z " fill="#CBB370" transform="translate(521.63671875,147.49609375)"/>
<path d="M0 0 C4.2652189 4.15297629 4.62484045 9.0569159 4.7890625 14.8046875 C4.84707031 16.60292969 4.84707031 16.60292969 4.90625 18.4375 C4.9371875 19.675 4.968125 20.9125 5 22.1875 C5.05800781 24.07855469 5.05800781 24.07855469 5.1171875 26.0078125 C5.21116989 29.10923137 5.29683411 32.21064886 5.375 35.3125 C6.365 35.6425 7.355 35.9725 8.375 36.3125 C8.87 39.2825 8.87 39.2825 9.375 42.3125 C2.38557082 43.75858879 2.38557082 43.75858879 -0.4921875 42.48828125 C-2.125 41.375 -2.125 41.375 -4.625 39.3125 C-5.718125 39.9725 -6.81125 40.6325 -7.9375 41.3125 C-13.09465703 43.87733831 -17.96535961 44.18520791 -23.625 43.3125 C-27.53575925 41.32281547 -29.20189098 39.94716354 -31.625 36.3125 C-32.36886219 30.81574991 -32.71741637 25.9345728 -29.5625 21.25 C-21.91931229 16.20874853 -14.64240987 15.37557883 -5.625 14.3125 C-4.9371764 11.95882287 -4.9371764 11.95882287 -4.625 9.3125 C-6.24355784 6.2019458 -6.24355784 6.2019458 -8.61328125 5.6953125 C-12.43064181 5.27187419 -14.94536503 5.03775395 -18.5625 6.5 C-20.65362665 8.33765675 -21.64446718 9.72745894 -22.625 12.3125 C-24.935 12.3125 -27.245 12.3125 -29.625 12.3125 C-29.94920072 7.66562297 -29.59307592 4.97312697 -26.625 1.3125 C-18.4658328 -3.6539496 -8.66050693 -4.03161529 0 0 Z M-14.125 22.5625 C-15.84203125 22.91054687 -15.84203125 22.91054687 -17.59375 23.265625 C-20.93967731 24.42117722 -22.00742561 25.2053607 -23.625 28.3125 C-23.63174926 31.43930099 -23.63174926 31.43930099 -22.625 34.3125 C-18.85286948 36.82725368 -17.10464158 36.76046416 -12.625 36.3125 C-9.36718288 34.94756476 -6.26005669 33.58261338 -4.625 30.3125 C-4.55549459 28.77226004 -4.54047643 27.22915012 -4.5625 25.6875 C-4.57152344 24.87023437 -4.58054687 24.05296875 -4.58984375 23.2109375 C-4.60144531 22.58445313 -4.61304688 21.95796875 -4.625 21.3125 C-7.96528215 21.3125 -10.85668801 21.87056008 -14.125 22.5625 Z " fill="#BC9D5A" transform="translate(311.625,159.6875)"/>
<path d="M0 0 C3.02137645 4.00322401 3.40621336 7.09202805 3.51171875 12.05078125 C3.52966995 12.70958786 3.54762115 13.36839447 3.56611633 14.04716492 C3.61996656 16.13554631 3.65403108 18.2237026 3.6875 20.3125 C3.7206957 21.7350572 3.75518744 23.15758479 3.79101562 24.58007812 C3.87567601 28.05316915 3.9426077 31.52633913 4 35 C5.65 35.33 7.3 35.66 9 36 C8.67 37.65 8.34 39.3 8 41 C6.5629191 41.05422947 5.12524538 41.09289723 3.6875 41.125 C2.88699219 41.14820313 2.08648437 41.17140625 1.26171875 41.1953125 C-1 41 -1 41 -4 39 C-4 38.34 -4 37.68 -4 37 C-5.60875 37.9590625 -5.60875 37.9590625 -7.25 38.9375 C-13.15871717 42.2751586 -19.04155822 43.01262464 -25.6875 41.3125 C-28.91165394 39.48257479 -30.79147929 38.02882841 -33 35 C-33.80250366 30.43997921 -33.56198371 26.4361806 -31.875 22.125 C-26.32289281 15.83261185 -20.03240912 14.79487382 -12 14 C-10.00019287 13.9722249 -7.9996812 13.96429141 -6 14 C-5.73067479 9.34947128 -5.73067479 9.34947128 -7 5 C-11.01119153 3.97233936 -14.89566258 3.76503459 -18.9375 4.625 C-21.57799424 6.3853295 -22.13166723 8.00030496 -23 11 C-25.64 11 -28.28 11 -31 11 C-30.58675744 5.7311573 -29.77055562 2.77055562 -26 -1 C-18.19928486 -6.20047676 -7.2352868 -5.35411223 0 0 Z M-14.5 20.75 C-15.90765625 20.98976562 -15.90765625 20.98976562 -17.34375 21.234375 C-20.20937025 22.0603479 -21.86760463 22.92202772 -24 25 C-24.43060657 28.44485259 -24.63335287 30.84506242 -22.9375 33.9375 C-19.80215407 35.65688325 -17.52056342 35.4107324 -14 35 C-10.06818807 33.38613756 -7.39649857 31.59474785 -5 28 C-4.92094936 25.66800612 -4.91201231 23.33167378 -5 21 C-8.42161718 19.87022074 -10.97651169 20.11112575 -14.5 20.75 Z " fill="#E5D68C" transform="translate(443,161)"/>
<path d="M0 0 C-0.01160156 0.71285156 -0.02320313 1.42570313 -0.03515625 2.16015625 C-0.08606026 7.56325366 0.05391729 12.67828475 1 18 C1.4846875 17.71125 1.969375 17.4225 2.46875 17.125 C7.63640485 14.26291424 11.09739384 13.33357672 17 14 C21.78020955 15.56276081 23.78380737 17.59830322 26.17956543 21.99319458 C27.58208281 25.42379049 27.49419791 28.68030955 27.390625 32.33984375 C27.38496521 33.10680069 27.37930542 33.87375763 27.37347412 34.66395569 C27.35126494 37.08913314 27.30110262 39.51277694 27.25 41.9375 C27.2299148 43.59177538 27.21166758 45.24607416 27.1953125 46.90039062 C27.15145159 50.93417548 27.08253637 54.96682866 27 59 C24.36 59 21.72 59 19 59 C17.7031356 56.4062712 17.90314251 54.55340427 17.9375 51.65234375 C17.94523437 50.57146484 17.95296875 49.49058594 17.9609375 48.37695312 C17.98666866 46.11132458 18.01270274 43.84569945 18.0390625 41.58007812 C18.08371587 35.28767469 17.84486599 29.23748722 17 23 C12.97069867 22.09546297 10.2842046 21.92894885 6.25 22.9375 C2.74923727 25.15913789 1.88574414 26.63008755 0.5625 30.47924805 C-0.57425839 35.57344528 -0.26226364 40.74833767 -0.125 45.9375 C-0.08187401 48.19654067 -0.04258976 50.45565914 -0.0078125 52.71484375 C0.01651855 53.70605225 0.04084961 54.69726074 0.06591797 55.71850586 C0 58 0 58 -1 59 C-3.64 59 -6.28 59 -9 59 C-9 39.53 -9 20.06 -9 0 C-2 -1 -2 -1 0 0 Z " fill="#DDCC81" transform="translate(376,143)"/>
<path d="M0 0 C5.52387104 3.17566675 9.30608386 8.24462144 11.1875 14.3125 C12.58751597 21.65897558 11.66767563 29.25199742 7.98828125 35.78125 C5.11655283 39.76724528 1.28101288 42.61483406 -3.25 44.5 C-10.33024949 45.44549916 -16.40254805 44.74009549 -22.25 40.5 C-27.70946063 35.04053937 -29.43345119 29.59385096 -29.625 22.0625 C-29.4317413 14.41121238 -27.92396157 8.02061126 -22.25 2.5 C-15.45524587 -2.30835269 -7.71918203 -3.29980301 0 0 Z M-18.25 10.5 C-20.95025161 16.03361422 -20.78154358 21.46493603 -20.25 27.5 C-19.07437065 30.85054365 -17.91393967 32.73391576 -15.625 35.375 C-11.8494999 37.16339478 -8.33745524 37.23720175 -4.25 36.5 C-0.91682849 34.44336226 0.33956636 32.7451136 1.5625 29.03515625 C2.93857043 22.9030424 3.19770574 17.37214022 0.75 11.5 C-1.33706868 8.40101923 -2.67992884 6.81914332 -6.40234375 6.0625 C-11.5556939 5.78811197 -14.69160531 6.51028474 -18.25 10.5 Z " fill="#8D612D" transform="translate(587.25,158.5)"/>
<path d="M0 0 C4.52266578 3.26636973 5.54547104 7.84303369 7 13 C6 14 6 14 4.15234375 14.09765625 C2.1015625 14.06510417 0.05078125 14.03255208 -2 14 C-2.45375 12.865625 -2.9075 11.73125 -3.375 10.5625 C-4.57095806 6.95278308 -4.57095806 6.95278308 -7 6 C-12.96297605 5.33221658 -12.96297605 5.33221658 -17.9375 8.3125 C-22.19492347 13.8600518 -21.45333132 20.29069653 -21 27 C-19.78137263 30.78415867 -19.09521283 32.28028871 -15.8125 34.4375 C-11.94913422 35.21017316 -8.88072823 34.65775055 -5 34 C-3.92474806 31.34771188 -2.90543849 28.71631546 -2 26 C0.64 26 3.28 26 6 26 C5.53199289 30.05606165 5.12046792 33.46588679 3 37 C2.34 37 1.68 37 1 37 C1 37.66 1 38.32 1 39 C-5.14923859 42.64399324 -9.85174036 43.96272857 -17 43 C-22.47500156 41.21009564 -25.8484299 37.6979927 -29 33 C-32.25649202 25.30283703 -31.91501975 16.97789439 -29.375 9.125 C-27.37086576 4.19553298 -25.5495665 1.76542278 -21 -1 C-13.35007116 -3.92088192 -7.26970531 -3.84059903 0 0 Z " fill="#C6AD6D" transform="translate(355,160)"/>
<path d="M0 0 C4.42326378 1.35155282 6.40412982 3.19890438 9 7 C10.23864138 10.71592415 10.56301318 14.13933819 10 18 C8 21.3125 8 21.3125 6 24 C6 24.99 6 25.98 6 27 C6.78375 27.680625 7.5675 28.36125 8.375 29.0625 C11.95103982 33.06425885 12.81360682 36.68374222 13 42 C12.07473682 47.4943463 9.55287766 51.73380515 5 55 C1.99811891 55.67605389 -0.92786393 55.92637582 -4 56 C-4.64453125 54.16015625 -4.64453125 54.16015625 -5 52 C-2.6875 49.4375 -2.6875 49.4375 0 47 C2.52831791 43.20752314 2.61322169 40.45050288 2 36 C0.18836733 33.32568511 -0.87761077 33.04079641 -4 32 C-6.73289293 31.77202438 -9.45042204 31.58331813 -12.1875 31.4375 C-12.93708984 31.39431641 -13.68667969 31.35113281 -14.45898438 31.30664062 C-16.30578375 31.20077315 -18.15286834 31.0999024 -20 31 C-19.67 30.34 -19.34 29.68 -19 29 C-16.05859375 28.5859375 -16.05859375 28.5859375 -12.4375 28.375 C-11.23996094 28.30023438 -10.04242188 28.22546875 -8.80859375 28.1484375 C-7.41833984 28.07496094 -7.41833984 28.07496094 -6 28 C-5.67 26.68 -5.34 25.36 -5 24 C-11.27 24 -17.54 24 -24 24 C-24 23.67 -24 23.34 -24 23 C-22.26363281 22.94392578 -22.26363281 22.94392578 -20.4921875 22.88671875 C-18.95309439 22.82102575 -17.4140333 22.75457958 -15.875 22.6875 C-15.11445313 22.66494141 -14.35390625 22.64238281 -13.5703125 22.61914062 C-8.69049587 22.38777001 -5.29109862 21.55683672 -1 19 C-0.91868537 17.56344146 -0.86066441 16.1255517 -0.8125 14.6875 C-0.77769531 13.88699219 -0.74289062 13.08648437 -0.70703125 12.26171875 C-1.06198392 9.52148416 -1.89366282 8.70828921 -4 7 C-2.68 7 -1.36 7 0 7 C0 4.69 0 2.38 0 0 Z " fill="#9D7944" transform="translate(262,144)"/>
<path d="M0 0 C2.60018816 3.90028225 2.15085514 7.47434569 2 12 C4.97 12.495 4.97 12.495 8 13 C8 14.98 8 16.96 8 19 C5.69 19 3.38 19 1 19 C1.16298584 19.53463867 1.32597168 20.06927734 1.49389648 20.62011719 C2.1050107 23.4937985 2.1120605 26.13965754 2.09765625 29.078125 C2.09443359 30.23828125 2.09121094 31.3984375 2.08789062 32.59375 C2.07951172 33.8003125 2.07113281 35.006875 2.0625 36.25 C2.05798828 37.47203125 2.05347656 38.6940625 2.04882812 39.953125 C2.03704815 42.96879946 2.02059853 45.98437498 2 49 C3.98 49 5.96 49 8 49 C8 51.31 8 53.62 8 56 C6.41705218 56.05437607 4.83355744 56.09296271 3.25 56.125 C1.92742187 56.15980469 1.92742187 56.15980469 0.578125 56.1953125 C-2.16889547 55.98720489 -3.72887503 55.54477419 -6 54 C-7.1687481 50.4937557 -7.12514267 47.3522134 -7.09765625 43.70703125 C-7.0962413 43.00100266 -7.09482635 42.29497406 -7.09336853 41.56755066 C-7.08777764 39.31582374 -7.07522688 37.06419679 -7.0625 34.8125 C-7.05748382 33.28450665 -7.05292112 31.75651173 -7.04882812 30.22851562 C-7.0378112 26.48563865 -7.02055287 22.74283627 -7 19 C-8.98 19 -10.96 19 -13 19 C-13 17.02 -13 15.04 -13 13 C-11.35 13 -9.7 13 -8 13 C-8 9.04 -8 5.08 -8 1 C-5.36 0.67 -2.72 0.34 0 0 Z " fill="#D3C58A" transform="translate(466,146)"/>
<path d="M0 0 C6.00722262 0.32782778 11.44287914 1.93943368 15.94921875 6.05859375 C20.05199757 10.77267486 20.72671337 14.89235491 20.65625 20.92578125 C19.91017146 26.64854275 16.74743814 30.31888695 12.5 34 C4.27988186 38.02946968 -2.25591895 36.04981641 -10.6875 33.5625 C-9.6975 33.0675 -9.6975 33.0675 -8.6875 32.5625 C-8.6875 31.5725 -8.6875 30.5825 -8.6875 29.5625 C-5.3875 29.5625 -2.0875 29.5625 1.3125 29.5625 C1.6425 28.9025 1.9725 28.2425 2.3125 27.5625 C4.3125 26.5625 6.3125 25.5625 8.3125 24.5625 C9.44999887 22.28750225 9.61116796 20.72013289 9.75 18.1875 C9.84087891 17.03121094 9.84087891 17.03121094 9.93359375 15.8515625 C9.45620075 13.29529299 9.45620075 13.29529299 6.87109375 11.2890625 C2.33471358 9.08809649 -1.10779381 9.10704169 -6.0625 9.3125 C-6.89394531 9.33054688 -7.72539062 9.34859375 -8.58203125 9.3671875 C-10.61769074 9.41398427 -12.6527509 9.48571702 -14.6875 9.5625 C-14.6875 13.8525 -14.6875 18.1425 -14.6875 22.5625 C-15.0175 22.5625 -15.3475 22.5625 -15.6875 22.5625 C-16.73309253 15.97526707 -16.52042414 10.97016041 -14.6875 4.5625 C-11.7175 5.0575 -11.7175 5.0575 -8.6875 5.5625 C-8.23375 4.7375 -7.78 3.9125 -7.3125 3.0625 C-4.41097239 0.29914037 -3.81845821 0.1365856 0 0 Z " fill="#BB9D5C" transform="translate(505.6875,141.4375)"/>
<path d="M0 0 C1.52487958 2.70612433 3.04565751 5.41437148 4.5625 8.125 C5.2443335 9.34123047 5.2443335 9.34123047 5.93994141 10.58203125 C9.36365317 16.73625881 12.48378221 22.97986891 15.4296875 29.375 C17.07426216 32.12413973 18.02027371 32.96806016 21 34 C20.01 34 19.02 34 18 34 C18 35.32 18 36.64 18 38 C14.28720216 36.55613418 13.0513557 34.87763608 11.25 31.375 C10.82203125 30.55773437 10.3940625 29.74046875 9.953125 28.8984375 C9.63859375 28.27195313 9.3240625 27.64546875 9 27 C8.7525 27.763125 8.505 28.52625 8.25 29.3125 C6.82567118 32.37480696 6.03419681 33.52390425 3 35 C-0.42819926 34.87971231 -2.94725831 34.6667364 -5.875 32.8125 C-7.54374114 30.12397261 -7.93669753 28.16512361 -8 25 C-6.4375 22.1875 -6.4375 22.1875 -4 20 C-0.35814676 18.9594705 1.39297148 18.79765716 5 20 C2.69 15.38 0.38 10.76 -2 6 C-5.72207387 6 -7.46395589 7.17964568 -10.6875 9 C-11.68136719 9.556875 -12.67523438 10.11375 -13.69921875 10.6875 C-14.45847656 11.120625 -15.21773437 11.55375 -16 12 C-14.07969071 18.84110185 -11.17540791 24.66478344 -7.60546875 30.76977539 C-4.94395952 35.48327385 -4.94395952 35.48327385 -5.265625 38.44921875 C-5.50796875 38.96097656 -5.7503125 39.47273438 -6 40 C-6.66 39.67 -7.32 39.34 -8 39 C-8.66 40.32 -9.32 41.64 -10 43 C-10.66 43 -11.32 43 -12 43 C-11.938125 41.824375 -11.938125 41.824375 -11.875 40.625 C-11.71271266 37.83883881 -11.71271266 37.83883881 -14 36 C-12.515 35.505 -12.515 35.505 -11 35 C-14.96 27.08 -18.92 19.16 -23 11 C-19.08372175 8.06279131 -15.28960039 5.97875699 -10.9375 3.8125 C-10.21755859 3.44447266 -9.49761719 3.07644531 -8.75585938 2.69726562 C-8.06169922 2.34986328 -7.36753906 2.00246094 -6.65234375 1.64453125 C-5.70862915 1.17043823 -5.70862915 1.17043823 -4.74584961 0.68676758 C-3 0 -3 0 0 0 Z M6 21 C7 23 7 23 7 23 Z M-3 24 C-3 25.32 -3 26.64 -3 28 C-2.01 27.67 -1.02 27.34 0 27 C-0.66 27 -1.32 27 -2 27 C-2.33 26.01 -2.66 25.02 -3 24 Z M3 27 C4 30 4 30 4 30 Z M-2 29 C-2 29.66 -2 30.32 -2 31 C-1.34 30.67 -0.68 30.34 0 30 C-0.66 29.67 -1.32 29.34 -2 29 Z M1 30 C1.66 30.66 2.32 31.32 3 32 C3 31.34 3 30.68 3 30 C2.34 30 1.68 30 1 30 Z " fill="#D5C58C" transform="translate(148,127)"/>
<path d="M0 0 C0.85856655 3.4342662 0.97591583 5.61682513 0 9 C-1.953125 9.35807292 -3.90625 9.71614583 -5.859375 10.07421875 C-8.96309379 11.41652049 -10.13857899 13.19545902 -12 16 C-12.63635465 19.27597454 -12.63635465 19.27597454 -12.609375 22.83203125 C-12.64160156 24.12431641 -12.67382812 25.41660156 -12.70703125 26.74804688 C-12.7217735 28.10286009 -12.73609112 29.45767798 -12.75 30.8125 C-12.77817759 32.18688639 -12.80810754 33.56123805 -12.83984375 34.93554688 C-12.91047274 38.2904241 -12.96320774 41.64460896 -13 45 C-16.375 45.625 -16.375 45.625 -20 46 C-22 44 -22 44 -22.24050903 42.16500854 C-22.23606781 41.42332428 -22.23162659 40.68164001 -22.22705078 39.91748047 C-22.22689972 39.07675995 -22.22674866 38.23603943 -22.22659302 37.36984253 C-22.21627045 36.46146637 -22.20594788 35.55309021 -22.1953125 34.6171875 C-22.1924826 33.68778351 -22.18965271 32.75837952 -22.18673706 31.80081177 C-22.17552069 28.8254115 -22.1504136 25.85030965 -22.125 22.875 C-22.11497208 20.86068142 -22.1058459 18.84635814 -22.09765625 16.83203125 C-22.07557661 11.88790544 -22.04103693 6.94400335 -22 2 C-19.36 1.67 -16.72 1.34 -14 1 C-13.34 1.99 -12.68 2.98 -12 4 C-10.700625 3.01 -10.700625 3.01 -9.375 2 C-5.78576537 -0.12695385 -4.07305202 -0.38790972 0 0 Z " fill="#B1904E" transform="translate(556,157)"/>
<path d="M0 0 C0.33 0 0.66 0 1 0 C1.33 2.31 1.66 4.62 2 7 C2.4846875 6.71125 2.969375 6.4225 3.46875 6.125 C8.63640485 3.26291424 12.09739384 2.33357672 18 3 C22.78020955 4.56276081 24.78380737 6.59830322 27.17956543 10.99319458 C28.58208281 14.42379049 28.49419791 17.68030955 28.390625 21.33984375 C28.38496521 22.10680069 28.37930542 22.87375763 28.37347412 23.66395569 C28.35126494 26.08913314 28.30110262 28.51277694 28.25 30.9375 C28.2299148 32.59177538 28.21166758 34.24607416 28.1953125 35.90039062 C28.15145159 39.93417548 28.08253637 43.96682866 28 48 C25.36 48 22.72 48 20 48 C18.7031356 45.4062712 18.90314251 43.55340427 18.9375 40.65234375 C18.94523437 39.57146484 18.95296875 38.49058594 18.9609375 37.37695312 C18.98666866 35.11132458 19.01270274 32.84569945 19.0390625 30.58007812 C19.08371587 24.28767469 18.84486599 18.23748722 18 12 C11.94474232 10.61233678 8.67989374 11.50881854 3 14 C3.33 12.35 3.66 10.7 4 9 C3.01 9.495 3.01 9.495 2 10 C1.34 9.67 0.68 9.34 0 9 C-0.99444068 5.65506316 -1.10348268 3.31044803 0 0 Z " fill="#EAE099" transform="translate(375,154)"/>
<path d="M0 0 C-0.020625 0.99 -0.04125 1.98 -0.0625 3 C-0.03446751 12.16951991 -0.03446751 12.16951991 4.5625 19.875 C8.63773464 23.28083689 11.76962948 23.90823911 17 24 C18 25 18 25 18.11352539 26.85766602 C18.10828857 27.64842529 18.10305176 28.43918457 18.09765625 29.25390625 C18.09443359 30.10791016 18.09121094 30.96191406 18.08789062 31.84179688 C18.07951172 32.73962891 18.07113281 33.63746094 18.0625 34.5625 C18.05798828 35.46419922 18.05347656 36.36589844 18.04882812 37.29492188 C18.03700225 39.53001314 18.0205222 41.76497437 18 44 C17.37786621 44.04390869 16.75573242 44.08781738 16.11474609 44.13305664 C15.30086426 44.20387451 14.48698242 44.27469238 13.6484375 44.34765625 C12.84067871 44.41218994 12.03291992 44.47672363 11.20068359 44.54321289 C8.70605013 44.84697724 8.70605013 44.84697724 6.625 47.4375 C6.08875 48.283125 5.5525 49.12875 5 50 C4.01 50.66 3.02 51.32 2 52 C2.90723613 56.68738665 3.9547267 61.34193744 5 66 C1.64566891 65.05066101 -1.69246505 64.10251165 -5 63 C-6.66362417 62.65179959 -8.32995171 62.31595508 -10 62 C-10 61.01 -10 60.02 -10 59 C-9.34 59.33 -8.68 59.66 -8 60 C-7.34 58.68 -6.68 57.36 -6 56 C-4.35 56 -2.7 56 -1 56 C-1 54.68 -1 53.36 -1 52 C-0.477312 49.03810132 -0.18963764 48.18963764 2 46 C2 45.01 2 44.02 2 43 C2.99 43 3.98 43 5 43 C5.33 42.01 5.66 41.02 6 40 C7.11375 40.2784375 7.11375 40.2784375 8.25 40.5625 C11.22840916 41.22052711 11.22840916 41.22052711 15 40 C15 35.38 15 30.76 15 26 C12.40125 25.814375 12.40125 25.814375 9.75 25.625 C5.99445248 25.35674661 3.26613695 24.91302307 0 23 C-1.12516085 24.83284443 -1.12516085 24.83284443 -2 27 C-1.67 27.99 -1.34 28.98 -1 30 C-3.31 30.66 -5.62 31.32 -8 32 C-8 31.01 -8 30.02 -8 29 C-8.33 28.34 -8.66 27.68 -9 27 C-9.46499339 19.67635403 -9.46499339 19.67635403 -7.625 17 C-6 16 -6 16 -4 16 C-4.165 15.401875 -4.33 14.80375 -4.5 14.1875 C-5 12 -5 12 -5 9 C-5.99 9 -6.98 9 -8 9 C-8 8.01 -8 7.02 -8 6 C-7.34 6 -6.68 6 -6 6 C-6.33 5.01 -6.66 4.02 -7 3 C-2.25 0 -2.25 0 0 0 Z M-7 23 C-7.33 23.66 -7.66 24.32 -8 25 C-7.34 25.66 -6.68 26.32 -6 27 C-5.67 26.01 -5.34 25.02 -5 24 C-5.66 23.67 -6.32 23.34 -7 23 Z " fill="#A68D55" transform="translate(185,152)"/>
<path d="M0 0 C0 0.33 0 0.66 0 1 C-2.31 1 -4.62 1 -7 1 C-7 2.32 -7 3.64 -7 5 C-5.2365625 5.1546875 -5.2365625 5.1546875 -3.4375 5.3125 C0.82485903 5.82914958 4.14087534 7.1508361 8 9 C6.68 9.99 5.36 10.98 4 12 C4 11.34 4 10.68 4 10 C-0.0574259 8.6475247 -3.76222922 8.32344361 -8 9 C-11.28175318 11.52968474 -12.69243777 13.07731331 -14 17 C-14.57706459 24.49074227 -13.89673352 30.1202579 -11 37 C-10.8125 40 -10.8125 40 -11 42 C-13.75 42.3125 -13.75 42.3125 -17 42 C-21.4121675 37.83995635 -23.72553403 32.90414673 -24.2890625 26.94140625 C-24.49490865 18.84790983 -23.57832097 13.20170825 -19.3125 6.25 C-13.55836769 0.65138478 -7.86536436 -0.65544703 0 0 Z " fill="#A17A40" transform="translate(582,157)"/>
<path d="M0 0 C0.70125 0.28875 1.4025 0.5775 2.125 0.875 C1.795 1.865 1.465 2.855 1.125 3.875 C1.310625 4.65875 1.49625 5.4425 1.6875 6.25 C2.60449526 11.75197154 -1.39601521 17.36072586 -4.125 22 C-5.06143419 24.34108548 -4.70846493 25.54129819 -3.875 27.875 C-3.215 27.875 -2.555 27.875 -1.875 27.875 C-1.545 27.215 -1.215 26.555 -0.875 25.875 C-0.875 27.195 -0.875 28.515 -0.875 29.875 C0.115 30.205 1.105 30.535 2.125 30.875 C1.795 32.195 1.465 33.515 1.125 34.875 C-4.31197715 31.42461065 -7.27054255 28.81316298 -9.875 22.875 C-10.125 19.4375 -10.125 19.4375 -9.875 16.875 C-10.720625 16.75125 -11.56625 16.6275 -12.4375 16.5 C-21.94962687 14.77052239 -21.94962687 14.77052239 -24.8125 12 C-25.875 9.875 -25.875 9.875 -25.875 5.875 C-23.895 6.865 -23.895 6.865 -21.875 7.875 C-21.33875 6.885 -20.8025 5.895 -20.25 4.875 C-17.875 1.875 -17.875 1.875 -14.8125 1.25 C-11.875 1.875 -11.875 1.875 -10 3.875 C-9.443125 4.865 -9.443125 4.865 -8.875 5.875 C-8.49988281 5.43027344 -8.12476562 4.98554688 -7.73828125 4.52734375 C-3.50621784 -0.15244425 -3.50621784 -0.15244425 0 0 Z M-14.875 4.875 C-15.865 5.37 -15.865 5.37 -16.875 5.875 C-16.545 7.195 -16.215 8.515 -15.875 9.875 C-15.215 9.875 -14.555 9.875 -13.875 9.875 C-13.545 8.885 -13.215 7.895 -12.875 6.875 C-13.535 6.215 -14.195 5.555 -14.875 4.875 Z M-9.875 8.875 C-10.535 10.195 -11.195 11.515 -11.875 12.875 C-10.885 12.545 -9.895 12.215 -8.875 11.875 C-9.205 10.885 -9.535 9.895 -9.875 8.875 Z " fill="#BC9D59" transform="translate(125.875,170.125)"/>
<path d="M0 0 C-1.56629373 3.35634371 -3.38341923 5.38341923 -6 8 C-8.28876507 8.57646135 -10.57889902 8.95069253 -12.90625 9.33984375 C-15.37015172 9.87626022 -15.37015172 9.87626022 -17 13 C-16.68493373 16.14221967 -16.68493373 16.14221967 -16 19 C-10.34244531 20.80996216 -4.9129304 22.35729017 1 23 C-4.4911559 27.60069818 -8.23469617 28.34486352 -15.265625 28.2890625 C-19.05029655 27.88896865 -21.19557289 26.51679356 -24 24 C-27.11654521 19.32518219 -26.71043184 14.4688451 -26 9 C-22.94349614 4.46155487 -19.12616782 2.70872261 -14 1 C-9.35869764 0.17860113 -4.71315657 -0.15203731 0 0 Z " fill="#AB8F57" transform="translate(306,175)"/>
<path d="M0 0 C-1 1 -1 1 -2.84765625 1.09765625 C-4.8984375 1.06510417 -6.94921875 1.03255208 -9 1 C-9.33 2.32 -9.66 3.64 -10 5 C-8.35 5 -6.7 5 -5 5 C-7.47379368 7.47379368 -9.6928935 7.96652922 -13 9 C-13.99 9.495 -13.99 9.495 -15 10 C-15 12.97 -15 15.94 -15 19 C-14.34 19 -13.68 19 -13 19 C-13 19.66 -13 20.32 -13 21 C-11.906875 20.938125 -10.81375 20.87625 -9.6875 20.8125 C-6 21 -6 21 -4.0625 22.375 C-3 24 -3 24 -3 26 C-7.78051743 27.59350581 -12.85302881 27.54922519 -17.6875 26.3125 C-20.91165394 24.48257479 -22.79147929 23.02882841 -25 20 C-25.80250366 15.43997921 -25.56198371 11.4361806 -23.875 7.125 C-18.2112587 0.70609319 -8.4244873 -2.80144434 0 0 Z " fill="#EFE79F" transform="translate(435,176)"/>
<path d="M0 0 C1.05477539 -0.00580078 1.05477539 -0.00580078 2.13085938 -0.01171875 C5.90062512 -0.00465265 9.39843938 0.221533 13.0625 1.125 C13.0625 3.765 13.0625 6.405 13.0625 9.125 C5.1425 9.125 -2.7775 9.125 -10.9375 9.125 C-10.9375 14.075 -10.9375 19.025 -10.9375 24.125 C-11.2675 24.125 -11.5975 24.125 -11.9375 24.125 C-12.2675 17.855 -12.5975 11.585 -12.9375 5.125 C-13.5975 4.795 -14.2575 4.465 -14.9375 4.125 C-10.80593338 -0.62630161 -5.95169039 -0.03255255 0 0 Z " fill="#986C33" transform="translate(248.9375,141.875)"/>
<path d="M0 0 C0.01417969 1.02480469 0.02835938 2.04960937 0.04296875 3.10546875 C0.08989016 4.46618971 0.13813744 5.82686541 0.1875 7.1875 C0.19330078 7.86103516 0.19910156 8.53457031 0.20507812 9.22851562 C0.37910819 13.19253388 0.84787398 14.82695665 3.5 17.84375 C4.7375 18.91109375 4.7375 18.91109375 6 20 C6.8125 22.3125 6.8125 22.3125 7 24 C4 25 4 25 1.8125 24.0625 C0.9153125 23.5365625 0.9153125 23.5365625 0 23 C-1.12516085 24.83284443 -1.12516085 24.83284443 -2 27 C-1.67 27.99 -1.34 28.98 -1 30 C-3.31 30.66 -5.62 31.32 -8 32 C-8 31.01 -8 30.02 -8 29 C-8.33 28.34 -8.66 27.68 -9 27 C-9.46499339 19.67635403 -9.46499339 19.67635403 -7.625 17 C-6 16 -6 16 -4 16 C-4.165 15.401875 -4.33 14.80375 -4.5 14.1875 C-5 12 -5 12 -5 9 C-5.99 9 -6.98 9 -8 9 C-8 8.01 -8 7.02 -8 6 C-7.34 6 -6.68 6 -6 6 C-6.33 5.01 -6.66 4.02 -7 3 C-2.25 0 -2.25 0 0 0 Z M-7 23 C-7.33 23.66 -7.66 24.32 -8 25 C-7.34 25.66 -6.68 26.32 -6 27 C-5.67 26.01 -5.34 25.02 -5 24 C-5.66 23.67 -6.32 23.34 -7 23 Z " fill="#B89858" transform="translate(185,152)"/>
<path d="M0 0 C2.64 0 5.28 0 8 0 C7.53199289 4.05606165 7.12046792 7.46588679 5 11 C4.34 11 3.68 11 3 11 C3 11.66 3 12.32 3 13 C-3.10883824 16.62005229 -7.88676869 18.03141854 -15 17 C-18.625 15.5 -18.625 15.5 -21 14 C-21 13.67 -21 13.34 -21 13 C-19.35 13 -17.7 13 -16 13 C-16 13.66 -16 14.32 -16 15 C-15.01 15 -14.02 15 -13 15 C-12.67 14.34 -12.34 13.68 -12 13 C-13.32 12.34 -14.64 11.68 -16 11 C-16 10.01 -16 9.02 -16 8 C-14.783125 8.185625 -13.56625 8.37125 -12.3125 8.5625 C-7.57652345 9.13407806 -7.57652345 9.13407806 -3 8 C-1.66096786 5.65245602 -1.66096786 5.65245602 -1 3 C-0.67 2.01 -0.34 1.02 0 0 Z " fill="#D0BA7B" transform="translate(353,186)"/>
<path d="M0 0 C-0.99 0.66 -1.98 1.32 -3 2 C-3 3.32 -3 4.64 -3 6 C-4.12148438 5.93039063 -4.12148438 5.93039063 -5.265625 5.859375 C-11.29572599 5.46512627 -11.29572599 5.46512627 -16.625 7.8125 C-18.14430327 10.03768937 -18.14430327 10.03768937 -19 13 C-21.64 13 -24.28 13 -27 13 C-26.58675744 7.7311573 -25.77055562 4.77055562 -22 1 C-16.1802313 -2.8798458 -5.83284954 -3.88856636 0 0 Z " fill="#ECE5A3" transform="translate(439,159)"/>
<path d="M0 0 C2.33476438 -0.02728439 4.65366918 -0.11927404 6.984375 -0.2578125 C9.55935144 0.07154495 10.37833684 1.03963504 12 3 C11.34 4.32 10.68 5.64 10 7 C9.01 6.34 8.02 5.68 7 5 C2.85248931 5.04666679 -1.05732932 5.71506276 -5 7 C-7.31501804 10.01283733 -7.31501804 10.01283733 -9 13 C-12.75 13.375 -12.75 13.375 -16 13 C-16.32420072 8.35312297 -15.96807592 5.66062697 -13 2 C-8.26154409 -1.23076539 -5.50427204 -1.02622021 0 0 Z " fill="#B5944E" transform="translate(298,159)"/>
<path d="M0 0 C1.65322266 0.01740234 1.65322266 0.01740234 3.33984375 0.03515625 C4.99693359 0.04869141 4.99693359 0.04869141 6.6875 0.0625 C7.54214844 0.07410156 8.39679688 0.08570313 9.27734375 0.09765625 C8.63796875 0.55140625 7.99859375 1.00515625 7.33984375 1.47265625 C5.18031969 2.93687351 5.18031969 2.93687351 4.27734375 5.09765625 C4.46296875 6.23203125 4.64859375 7.36640625 4.83984375 8.53515625 C5.27734375 12.09765625 5.27734375 12.09765625 3.27734375 15.09765625 C2.94734375 16.08765625 2.61734375 17.07765625 2.27734375 18.09765625 C1.27734375 21.09765625 1.27734375 21.09765625 -0.72265625 24.09765625 C-1.18303265 27.2957229 -1.18303265 27.2957229 -1.34765625 30.78515625 C-1.42242187 31.96464844 -1.4971875 33.14414063 -1.57421875 34.359375 C-1.62320313 35.26300781 -1.6721875 36.16664063 -1.72265625 37.09765625 C-2.38265625 37.09765625 -3.04265625 37.09765625 -3.72265625 37.09765625 C-3.74730635 31.98901729 -3.76549232 26.88041266 -3.77758789 21.77172852 C-3.78262829 20.03246457 -3.78946055 18.29320489 -3.7980957 16.55395508 C-3.81017417 14.05939688 -3.81588733 11.56489452 -3.8203125 9.0703125 C-3.82547379 8.28801773 -3.83063507 7.50572296 -3.83595276 6.69972229 C-3.83614851 4.83198511 -3.78465319 2.96436421 -3.72265625 1.09765625 C-2.72265625 0.09765625 -2.72265625 0.09765625 0 0 Z " fill="#8E5E2A" transform="translate(231.72265625,141.90234375)"/>
<path d="M0 0 C5.19722906 2.74570592 7.19389552 4.98069604 9.0625 10.5 C9.49099837 11.91313294 9.9116428 13.32877902 10.3125 14.75 C9.3125 15.75 9.3125 15.75 7.46484375 15.84765625 C5.4140625 15.81510417 3.36328125 15.78255208 1.3125 15.75 C0.631875 14.0484375 0.631875 14.0484375 -0.0625 12.3125 C-1.25845806 8.70278308 -1.25845806 8.70278308 -3.6875 7.75 C-5.39452735 7.68003986 -7.10418003 7.66559846 -8.8125 7.6875 C-9.72257812 7.69652344 -10.63265625 7.70554688 -11.5703125 7.71484375 C-12.61832031 7.73224609 -12.61832031 7.73224609 -13.6875 7.75 C-13.3575 7.09 -13.0275 6.43 -12.6875 5.75 C-12.0275 5.75 -11.3675 5.75 -10.6875 5.75 C-10.3575 5.09 -10.0275 4.43 -9.6875 3.75 C-8.3675 3.75 -7.0475 3.75 -5.6875 3.75 C-6.0175 3.09 -6.3475 2.43 -6.6875 1.75 C-8.58283342 1.28476937 -8.58283342 1.28476937 -10.75 1.125 C-12.049375 1.00125 -13.34875 0.8775 -14.6875 0.75 C-9.85186953 -2.3448035 -5.26471426 -1.7846489 0 0 Z " fill="#D1BF85" transform="translate(351.6875,158.25)"/>
<path d="M0 0 C-0.33 3.63 -0.66 7.26 -1 11 C-1.66 10.67 -2.32 10.34 -3 10 C-2.67 7.36 -2.34 4.72 -2 2 C-4.97 1.505 -4.97 1.505 -8 1 C-8 19.81 -8 38.62 -8 58 C-6.58422523 56.81575674 -6.58422523 56.81575674 -6.9375 53.4375 C-6.958125 52.303125 -6.97875 51.16875 -7 50 C-5.68 49.34 -4.36 48.68 -3 48 C-2.93941406 46.80761719 -2.87882812 45.61523438 -2.81640625 44.38671875 C-2.73198851 42.82030075 -2.64734113 41.25389512 -2.5625 39.6875 C-2.52318359 38.90181641 -2.48386719 38.11613281 -2.44335938 37.30664062 C-2.40146484 36.54931641 -2.35957031 35.79199219 -2.31640625 35.01171875 C-2.27974854 34.31522217 -2.24309082 33.61872559 -2.20532227 32.90112305 C-2 31 -2 31 -1 28 C-0.34 28.33 0.32 28.66 1 29 C0.83628906 29.53987549 0.67257812 30.07975098 0.50390625 30.63598633 C-0.09149031 33.42921543 -0.0949847 35.96804653 -0.0625 38.82421875 C-0.05476563 39.93474609 -0.04703125 41.04527344 -0.0390625 42.18945312 C-0.02617187 43.34380859 -0.01328125 44.49816406 0 45.6875 C0.02537896 47.98302716 0.04645612 50.27860736 0.0625 52.57421875 C0.07410156 53.59088623 0.08570313 54.60755371 0.09765625 55.6550293 C0 58 0 58 -1 59 C-3.64 59 -6.28 59 -9 59 C-9 39.53 -9 20.06 -9 0 C-2 -1 -2 -1 0 0 Z " fill="#E0D291" transform="translate(376,143)"/>
<path d="M0 0 C0.66 0.33 1.32 0.66 2 1 C2.02505615 1.64549805 2.0501123 2.29099609 2.07592773 2.95605469 C2.19214433 5.88755894 2.31475442 8.81876217 2.4375 11.75 C2.47681641 12.76578125 2.51613281 13.7815625 2.55664062 14.828125 C2.59853516 15.8078125 2.64042969 16.7875 2.68359375 17.796875 C2.72025146 18.69760742 2.75690918 19.59833984 2.79467773 20.52636719 C2.98306407 22.79596339 3.37366501 24.81562887 4 27 C5.65 27 7.3 27 9 27 C9 28.65 9 30.3 9 32 C4.38820072 32.18085487 1.20961305 31.84670417 -3 30 C-3.02897435 25.72918086 -3.04678996 21.45838691 -3.0625 17.1875 C-3.07087891 15.97255859 -3.07925781 14.75761719 -3.08789062 13.50585938 C-3.09111328 12.34248047 -3.09433594 11.17910156 -3.09765625 9.98046875 C-3.10289307 8.90692139 -3.10812988 7.83337402 -3.11352539 6.72729492 C-3 4 -3 4 -2 1 C-1.34 0.67 -0.68 0.34 0 0 Z " fill="#D7C47B" transform="translate(464,169)"/>
<path d="M0 0 C2.6734139 4.01012085 2.69178729 7.28884101 2 12 C0.4375 14.125 0.4375 14.125 -2 15 C-5.42819926 14.87971231 -7.94725831 14.6667364 -10.875 12.8125 C-12.54374114 10.12397261 -12.93669753 8.16512361 -13 5 C-9.4694333 -0.67412505 -6.3892475 -1.63129723 0 0 Z M-8 4 C-8 5.32 -8 6.64 -8 8 C-7.01 7.67 -6.02 7.34 -5 7 C-5.66 7 -6.32 7 -7 7 C-7.33 6.01 -7.66 5.02 -8 4 Z M-2 7 C-1 10 -1 10 -1 10 Z M-7 9 C-7 9.66 -7 10.32 -7 11 C-6.34 10.67 -5.68 10.34 -5 10 C-5.66 9.67 -6.32 9.34 -7 9 Z M-4 10 C-3.34 10.66 -2.68 11.32 -2 12 C-2 11.34 -2 10.68 -2 10 C-2.66 10 -3.32 10 -4 10 Z " fill="#D8CB94" transform="translate(153,147)"/>
<path d="M0 0 C6.6 0 13.2 0 20 0 C19.67 2.31 19.34 4.62 19 7 C22.465 6.505 22.465 6.505 26 6 C21.85746458 10.14253542 15.94574874 9.18336778 10.4375 9.1875 C9.57447266 9.19974609 8.71144531 9.21199219 7.82226562 9.22460938 C6.57799805 9.22750977 6.57799805 9.22750977 5.30859375 9.23046875 C4.55376709 9.23457764 3.79894043 9.23868652 3.02124023 9.24291992 C1 9 1 9 -2 7 C-1.34 6.34 -0.68 5.68 0 5 C-0.33 4.01 -0.66 3.02 -1 2 C-0.67 1.34 -0.34 0.68 0 0 Z " fill="#956C38" transform="translate(239,193)"/>
<path d="M0 0 C4.42326378 1.35155282 6.40412982 3.19890438 9 7 C10.49154396 11.47463189 10.633358 15.9415865 9.25 20.4375 C7.6637767 22.42027913 6.47407292 22.67012361 4 23 C1.02715832 18.99312643 0.62581018 15.82380394 0.50390625 10.98828125 C0.19183688 8.79340874 0.19183688 8.79340874 -2.03515625 7.73046875 C-2.68355469 7.48941406 -3.33195312 7.24835938 -4 7 C-2.68 7 -1.36 7 0 7 C0 4.69 0 2.38 0 0 Z " fill="#A27B3E" transform="translate(262,144)"/>
<path d="M0 0 C1.37553268 3.82092412 0.81309902 7.08234111 0 11 C-4.36857367 13.18428683 -10.68066018 12.68309324 -15.28125 11.328125 C-16.88994594 10.62926529 -18.45240538 9.8253838 -20 9 C-20 8.67 -20 8.34 -20 8 C-18.35 8 -16.7 8 -15 8 C-15.33 5.69 -15.66 3.38 -16 1 C-15.15115234 1.48533203 -15.15115234 1.48533203 -14.28515625 1.98046875 C-11.81325993 3.0833148 -10.12865086 3.29883934 -7.4375 3.3125 C-6.67308594 3.32925781 -5.90867187 3.34601563 -5.12109375 3.36328125 C-2.52102077 2.91796488 -1.65168612 1.99996498 0 0 Z " fill="#936D3E" transform="translate(586,191)"/>
<path d="M0 0 C0.85856655 3.4342662 0.97591583 5.61682513 0 9 C-1.27875 9.309375 -2.5575 9.61875 -3.875 9.9375 C-6.10101675 10.47605244 -7.94739999 10.9737 -10 12 C-12.03144641 11.06553465 -14.03533587 10.06775224 -16 9 C-15.67 8.34 -15.34 7.68 -15 7 C-15.28112064 4.99199544 -15.61067967 2.98985949 -16 1 C-13 2 -13 2 -12 4 C-11.13375 3.34 -10.2675 2.68 -9.375 2 C-5.78576537 -0.12695385 -4.07305202 -0.38790972 0 0 Z " fill="#A58652" transform="translate(556,157)"/>
<path d="M0 0 C2.4018163 3.90295149 1.80667691 7.97364726 1.5 12.4375 C-0.9375 11.1875 -0.9375 11.1875 -3.5 9.4375 C-3.83333333 8.10416667 -4.16666667 6.77083333 -4.5 5.4375 C-8.4414011 2.33215368 -12.69511353 1.4962038 -17.5 0.4375 C-17.5 -0.8825 -17.5 -2.2025 -17.5 -3.5625 C-10.54827726 -5.15560313 -5.99301629 -3.74563518 0 0 Z " fill="#926A37" transform="translate(592.5,161.5625)"/>
<path d="M0 0 C0 0.66 0 1.32 0 2 C-0.99 2.66 -1.98 3.32 -3 4 C-3.27900729 6.92957652 -3.45675659 9.15405512 -3 12 C-1.60414215 13.81476003 -1.60414215 13.81476003 0 15 C0 15.99 0 16.98 0 18 C-3 19 -3 19 -5.5625 18.25 C-8 17 -8 17 -10 14 C-10.37109375 11.1875 -10.37109375 11.1875 -10.4375 8 C-10.47746094 6.948125 -10.51742188 5.89625 -10.55859375 4.8125 C-10 2 -10 2 -7.6484375 0.10546875 C-4.57604838 -1.17695916 -3.12917779 -0.98345588 0 0 Z " fill="#AC884A" transform="translate(290,182)"/>
<path d="M0 0 C3.99059086 0.19480695 7.41648743 0.87602102 11.125 2.4375 C11.125 2.7675 11.125 3.0975 11.125 3.4375 C8.155 3.4375 5.185 3.4375 2.125 3.4375 C1.795 4.4275 1.465 5.4175 1.125 6.4375 C3.105 7.0975 5.085 7.7575 7.125 8.4375 C7.125 9.0975 7.125 9.7575 7.125 10.4375 C6.55426758 10.27451416 5.98353516 10.11152832 5.39550781 9.94360352 C3.10846733 9.43381481 1.13535544 9.32314032 -1.203125 9.33984375 C-2.40195312 9.34467773 -2.40195312 9.34467773 -3.625 9.34960938 C-4.45 9.35798828 -5.275 9.36636719 -6.125 9.375 C-6.96546875 9.37951172 -7.8059375 9.38402344 -8.671875 9.38867188 C-10.73961401 9.40042039 -12.80731624 9.41835478 -14.875 9.4375 C-14.875 13.7275 -14.875 18.0175 -14.875 22.4375 C-15.205 22.4375 -15.535 22.4375 -15.875 22.4375 C-16.92059253 15.85026707 -16.70792414 10.84516041 -14.875 4.4375 C-11.905 4.9325 -11.905 4.9325 -8.875 5.4375 C-8.42125 4.6125 -7.9675 3.7875 -7.5 2.9375 C-4.53179135 0.11063462 -3.91521632 0.05306769 0 0 Z " fill="#BFA562" transform="translate(505.875,141.5625)"/>
<path d="M0 0 C0.66 0 1.32 0 2 0 C2.33 18.81 2.66 37.62 3 57 C4.65 57.33 6.3 57.66 8 58 C8 58.33 8 58.66 8 59 C5.66705225 59.04241723 3.33297433 59.04092937 1 59 C0 58 0 58 -0.12025452 55.67784119 C-0.11803391 54.64969803 -0.11581329 53.62155487 -0.11352539 52.56225586 C-0.11344986 51.40112778 -0.11337433 50.23999969 -0.11329651 49.04368591 C-0.10813522 47.780168 -0.10297394 46.51665009 -0.09765625 45.21484375 C-0.0962413 43.92888809 -0.09482635 42.64293243 -0.09336853 41.31800842 C-0.08954418 37.89356557 -0.07971462 34.46916491 -0.06866455 31.04473877 C-0.05844864 27.55261811 -0.05387053 24.06049066 -0.04882812 20.56835938 C-0.03809227 13.71222222 -0.02101684 6.85611313 0 0 Z " fill="#CAB984" transform="translate(481,143)"/>
<path d="M0 0 C-0.375 2.125 -0.375 2.125 -1 4 C-1.95261719 4.06058594 -2.90523437 4.12117187 -3.88671875 4.18359375 C-5.14097656 4.26738281 -6.39523438 4.35117188 -7.6875 4.4375 C-8.92886719 4.51871094 -10.17023438 4.59992188 -11.44921875 4.68359375 C-14.38180337 4.94491317 -17.13441617 5.34798379 -20 6 C-20.33 7.32 -20.66 8.64 -21 10 C-21.99 9.01 -22.98 8.02 -24 7 C-23.67 6.01 -23.34 5.02 -23 4 C-22.01 4 -21.02 4 -20 4 C-20 2.35 -20 0.7 -20 -1 C-17.04210873 -1.2210949 -14.08447236 -1.42740245 -11.125 -1.625 C-10.28324219 -1.68945312 -9.44148437 -1.75390625 -8.57421875 -1.8203125 C-7.36572266 -1.89765625 -7.36572266 -1.89765625 -6.1328125 -1.9765625 C-5.38918457 -2.02893066 -4.64555664 -2.08129883 -3.87939453 -2.13525391 C-2 -2 -2 -2 0 0 Z " fill="#976C33" transform="translate(258,169)"/>
<path d="M0 0 C1.21236328 0.01353516 1.21236328 0.01353516 2.44921875 0.02734375 C3.37154297 0.04474609 3.37154297 0.04474609 4.3125 0.0625 C4.3125 0.3925 4.3125 0.7225 4.3125 1.0625 C2.0025 1.0625 -0.3075 1.0625 -2.6875 1.0625 C-2.6875 2.3825 -2.6875 3.7025 -2.6875 5.0625 C-0.9240625 5.2171875 -0.9240625 5.2171875 0.875 5.375 C5.13735903 5.89164958 8.45337534 7.2133361 12.3125 9.0625 C10.9925 10.0525 9.6725 11.0425 8.3125 12.0625 C8.3125 11.4025 8.3125 10.7425 8.3125 10.0625 C4.2679234 8.7143078 0.54157135 8.49220491 -3.6875 9.0625 C-6.71440443 10.87840979 -6.71440443 10.87840979 -8.6875 13.0625 C-9.3475 12.7325 -10.0075 12.4025 -10.6875 12.0625 C-10.3575 10.7425 -10.0275 9.4225 -9.6875 8.0625 C-11.0075 7.0725 -12.3275 6.0825 -13.6875 5.0625 C-8.94538047 1.79570655 -5.78484004 -0.08383826 0 0 Z " fill="#967242" transform="translate(577.6875,156.9375)"/>
<path d="M0 0 C1.11375 0.185625 1.11375 0.185625 2.25 0.375 C1.59 1.695 0.93 3.015 0.25 4.375 C-0.41 4.375 -1.07 4.375 -1.75 4.375 C-1.42 5.365 -1.09 6.355 -0.75 7.375 C-0.09 7.705 0.57 8.035 1.25 8.375 C1.25 7.055 1.25 5.735 1.25 4.375 C1.91 4.375 2.57 4.375 3.25 4.375 C3.45140476 8.00028568 3.10776765 10.24001708 1.25 13.375 C-3.16562483 13.80790439 -5.09721796 13.87500327 -8.6875 11.125 C-10.75 8.375 -10.75 8.375 -10.75 4.375 C-8.77 5.365 -8.77 5.365 -6.75 6.375 C-6.193125 5.385 -5.63625 4.395 -5.0625 3.375 C-2.75 0.375 -2.75 0.375 0 0 Z " fill="#9E7B46" transform="translate(110.75,171.625)"/>
<path d="M0 0 C0.33 0 0.66 0 1 0 C1.33 2.31 1.66 4.62 2 7 C2.680625 6.505 3.36125 6.01 4.0625 5.5 C7.68245934 3.65151013 9.97577759 3.64069443 14 4 C16.9375 5 16.9375 5 19 6 C19 7.32 19 8.64 19 10 C18.18015625 10.12117187 17.3603125 10.24234375 16.515625 10.3671875 C15.43796875 10.53476563 14.3603125 10.70234375 13.25 10.875 C11.64898437 11.11863281 11.64898437 11.11863281 10.015625 11.3671875 C7.32291129 11.93223882 5.36427561 12.63422914 3 14 C3.33 12.35 3.66 10.7 4 9 C3.01 9.495 3.01 9.495 2 10 C1.34 9.67 0.68 9.34 0 9 C-0.99444068 5.65506316 -1.10348268 3.31044803 0 0 Z " fill="#E5D993" transform="translate(375,154)"/>
<path d="M0 0 C2.475 0.99 2.475 0.99 5 2 C5.31941955 7.32365924 4.53623423 10.35023724 2 15 C2 15.99 2 16.98 2 18 C1.01 17.67 0.02 17.34 -1 17 C-1.6875 14.9375 -1.6875 14.9375 -2 13 C-3.32 12.67 -4.64 12.34 -6 12 C-5.01 11.67 -4.02 11.34 -3 11 C-3 10.34 -3 9.68 -3 9 C-2.34 8.67 -1.68 8.34 -1 8 C-1.020625 7.05125 -1.04125 6.1025 -1.0625 5.125 C-1 2 -1 2 0 0 Z " fill="#DBC77D" transform="translate(461,149)"/>
<path d="M0 0 C0.99 0.33 1.98 0.66 3 1 C3 6.28 3 11.56 3 17 C1.68 17.33 0.36 17.66 -1 18 C-3 16 -3 16 -3.265625 13.79296875 C-3.20211161 3.20211161 -3.20211161 3.20211161 0 0 Z " fill="#C7A964" transform="translate(328,170)"/>
<path d="M0 0 C4.35495034 2.17379078 5.97906229 4.20411082 8.0625 8.5625 C9.89558097 12.38607333 10.9229445 14.51823144 15 16 C14.01 16 13.02 16 12 16 C12 17.32 12 18.64 12 20 C8.28720216 18.55613418 7.0513557 16.87763608 5.25 13.375 C4.82203125 12.55773437 4.3940625 11.74046875 3.953125 10.8984375 C3.63859375 10.27195313 3.3240625 9.64546875 3 9 C2.34 10.32 1.68 11.64 1 13 C1.020625 11.783125 1.04125 10.56625 1.0625 9.3125 C1.06824116 6.08022678 0.78766315 3.15065259 0 0 Z " fill="#E6D595" transform="translate(154,145)"/>
<path d="M0 0 C-0.33 3.63 -0.66 7.26 -1 11 C-1.66 10.67 -2.32 10.34 -3 10 C-2.67 7.36 -2.34 4.72 -2 2 C-4.97 1.505 -4.97 1.505 -8 1 C-8 19.81 -8 38.62 -8 58 C-7.34 58.33 -6.68 58.66 -6 59 C-6.99 59 -7.98 59 -9 59 C-9 39.53 -9 20.06 -9 0 C-2 -1 -2 -1 0 0 Z " fill="#D8D0A0" transform="translate(376,143)"/>
<path d="M0 0 C1.32 1.32 2.64 2.64 4 4 C5.32 3.01 6.64 2.02 8 1 C7.25 8.625 7.25 8.625 5 12 C4.34 12 3.68 12 3 12 C3 12.66 3 13.32 3 14 C3.99 14 4.98 14 6 14 C6.33 14.99 6.66 15.98 7 17 C5.02 17.99 5.02 17.99 3 19 C3 17.68 3 16.36 3 15 C0.03 14.505 0.03 14.505 -3 14 C-2.34 13.67 -1.68 13.34 -1 13 C-0.31270746 10.88153715 -0.31270746 10.88153715 0.125 8.4375 C0.29257813 7.61121094 0.46015625 6.78492188 0.6328125 5.93359375 C0.75398438 5.29550781 0.87515625 4.65742188 1 4 C-0.32 3.34 -1.64 2.68 -3 2 C-2.01 1.34 -1.02 0.68 0 0 Z M3 7 C2.34 8.32 1.68 9.64 1 11 C1.99 10.67 2.98 10.34 4 10 C3.67 9.01 3.34 8.02 3 7 Z " fill="#AB874F" transform="translate(113,172)"/>
<path d="M0 0 C0.33 0.99 0.66 1.98 1 3 C0.0925 3.2475 -0.815 3.495 -1.75 3.75 C-7.00305564 5.77040602 -9.61027852 9.64178667 -13 14 C-12.27991594 9.39146203 -10.68704061 5.32762591 -9 1 C-9.66 1 -10.32 1 -11 1 C-11 2.32 -11 3.64 -11 5 C-12.65 5 -14.3 5 -16 5 C-16.33 5.99 -16.66 6.98 -17 8 C-17 4 -17 4 -15.25 1.75 C-10.31439815 -0.90763176 -5.49309351 -0.31539293 0 0 Z " fill="#CBB67D" transform="translate(346,159)"/>
<path d="M0 0 C1.43655854 -0.08131463 2.8744483 -0.13933559 4.3125 -0.1875 C5.51326172 -0.23970703 5.51326172 -0.23970703 6.73828125 -0.29296875 C9.47851584 0.06198392 10.29171079 0.89366282 12 3 C11.34 4.32 10.68 5.64 10 7 C9.01 6.34 8.02 5.68 7 5 C4.11067365 5.12099887 4.11067365 5.12099887 1 5.75 C-0.051875 5.93046875 -1.10375 6.1109375 -2.1875 6.296875 C-5.18095599 6.87772771 -5.18095599 6.87772771 -8 9 C-7.67 7.35 -7.34 5.7 -7 4 C-6.030625 3.71125 -5.06125 3.4225 -4.0625 3.125 C-0.89335797 2.35785318 -0.89335797 2.35785318 0 0 Z " fill="#BA9857" transform="translate(298,159)"/>
<path d="M0 0 C1.485 0.99 1.485 0.99 3 2 C5.01658904 2.41516798 5.01658904 2.41516798 7.125 2.5625 C11 3 11 3 12 4 C12.08651611 5.41570123 12.10704904 6.835595 12.09765625 8.25390625 C12.09443359 9.10791016 12.09121094 9.96191406 12.08789062 10.84179688 C12.07951172 11.73962891 12.07113281 12.63746094 12.0625 13.5625 C12.05798828 14.46419922 12.05347656 15.36589844 12.04882812 16.29492188 C12.03700244 18.52997589 12.01906638 20.76499602 12 23 C9.03 23 6.06 23 3 23 C2.67 22.01 2.34 21.02 2 20 C6.75 19 6.75 19 9 19 C9 14.38 9 9.76 9 5 C6.36 4.67 3.72 4.34 1 4 C0.67 2.68 0.34 1.36 0 0 Z " fill="#88633A" transform="translate(191,173)"/>
<path d="M0 0 C0.66 0.33 1.32 0.66 2 1 C1.67 1.66 1.34 2.32 1 3 C2.3921875 3.185625 2.3921875 3.185625 3.8125 3.375 C7 4 7 4 10 6 C10.99 5.67 11.98 5.34 13 5 C13 5.99 13 6.98 13 8 C14.32 8 15.64 8 17 8 C17 6.35 17 4.7 17 3 C17.66 3.66 18.32 4.32 19 5 C18.625 7.125 18.625 7.125 18 9 C16.5629191 9.05422947 15.12524538 9.09289723 13.6875 9.125 C12.88699219 9.14820313 12.08648437 9.17140625 11.26171875 9.1953125 C9 9 9 9 6 7 C6 6.34 6 5.68 6 5 C2.535 6.485 2.535 6.485 -1 8 C-1.350625 7.525625 -1.70125 7.05125 -2.0625 6.5625 C-4.84163543 4.32126175 -7.5144717 4.32882342 -11 4 C-11 3.67 -11 3.34 -11 3 C-10.28972656 2.86722656 -9.57945312 2.73445312 -8.84765625 2.59765625 C-7.92855469 2.42105469 -7.00945312 2.24445313 -6.0625 2.0625 C-4.68771484 1.80146484 -4.68771484 1.80146484 -3.28515625 1.53515625 C-1.04710156 1.22285012 -1.04710156 1.22285012 0 0 Z " fill="#E4DB9D" transform="translate(433,193)"/>
<path d="M0 0 C0.66 0 1.32 0 2 0 C2.01417969 1.02480469 2.02835938 2.04960937 2.04296875 3.10546875 C2.08989016 4.46618971 2.13813744 5.82686541 2.1875 7.1875 C2.19330078 7.86103516 2.19910156 8.53457031 2.20507812 9.22851562 C2.37910819 13.19253388 2.84787398 14.82695665 5.5 17.84375 C6.325 18.5553125 7.15 19.266875 8 20 C8.8125 22.3125 8.8125 22.3125 9 24 C6 25 6 25 2.8125 23.5625 C1.884375 23.046875 0.95625 22.53125 0 22 C0.185625 21.4225 0.37125 20.845 0.5625 20.25 C1.14975685 18.07984702 1.14975685 18.07984702 0.56640625 16.27734375 C-0.17465136 13.29778108 -0.38517507 10.37198083 -0.625 7.3125 C-0.76808594 5.57419922 -0.76808594 5.57419922 -0.9140625 3.80078125 C-0.94242188 2.87652344 -0.97078125 1.95226562 -1 1 C-0.67 0.67 -0.34 0.34 0 0 Z " fill="#A78F5E" transform="translate(183,152)"/>
<path d="M0 0 C0.33 0 0.66 0 1 0 C1.33 8.91 1.66 17.82 2 27 C2.99 27.33 3.98 27.66 5 28 C5.33 29.98 5.66 31.96 6 34 C3.36 34.33 0.72 34.66 -2 35 C-1.67 33.68 -1.34 32.36 -1 31 C-1.66 30.67 -2.32 30.34 -3 30 C-2.01 29.34 -1.02 28.68 0 28 C0.41789089 25.08935621 0.41789089 25.08935621 0.29296875 21.6796875 C0.28330078 20.42285156 0.27363281 19.16601562 0.26367188 17.87109375 C0.2259668 15.89302734 0.2259668 15.89302734 0.1875 13.875 C0.17245483 12.53517097 0.15876613 11.19532596 0.14648438 9.85546875 C0.11102872 6.56991158 0.06160849 3.28515418 0 0 Z " fill="#B7A671" transform="translate(315,168)"/>
<path d="M0 0 C0.33 0 0.66 0 1 0 C1.33 9.9 1.66 19.8 2 30 C2.99 30 3.98 30 5 30 C5 31.65 5 33.3 5 35 C3.68 35 2.36 35 1 35 C0.87625 34.071875 0.87625 34.071875 0.75 33.125 C0.18741541 30.81562433 0.18741541 30.81562433 -2.0625 29.75 C-2.701875 29.5025 -3.34125 29.255 -4 29 C-3.01 29 -2.02 29 -1 29 C-1.33 27.35 -1.66 25.7 -2 24 C-1.34 24 -0.68 24 0 24 C0 16.08 0 8.16 0 0 Z " fill="#DCD292" transform="translate(445,166)"/>
<path d="M0 0 C1.56940541 4.70821622 -0.11963564 8.52906172 -2 13 C-4.17906936 16.39033975 -6.242047 19.45161894 -10.19140625 20.68359375 C-10.78824219 20.78800781 -11.38507812 20.89242187 -12 21 C-12 19.02 -12 17.04 -12 15 C-9.10765685 14.17361624 -7.11257569 14 -4 14 C-4.33 13.01 -4.66 12.02 -5 11 C-4.2578125 8.5546875 -4.2578125 8.5546875 -3.125 5.875 C-2.57199219 4.54082031 -2.57199219 4.54082031 -2.0078125 3.1796875 C-1 1 -1 1 0 0 Z " fill="#886134" transform="translate(598,180)"/>
<path d="M0 0 C2.97752446 0.33083605 4.81374721 0.87415352 7.3125 2.5625 C9.78719807 6.13706388 9.28590207 8.71146895 9 13 C6.5625 11.75 6.5625 11.75 4 10 C3.63837971 8.67405895 3.30271961 7.34061543 3 6 C1.0162233 4.71563266 1.0162233 4.71563266 -1 4 C-0.67 2.68 -0.34 1.36 0 0 Z " fill="#946326" transform="translate(585,161)"/>
<path d="M0 0 C-1.56629373 3.35634371 -3.38341923 5.38341923 -6 8 C-8.625 8.125 -8.625 8.125 -11 8 C-11.12375 7.360625 -11.2475 6.72125 -11.375 6.0625 C-11.684375 5.0415625 -11.684375 5.0415625 -12 4 C-12.66 3.67 -13.32 3.34 -14 3 C-14 2.34 -14 1.68 -14 1 C-4.58997722 -0.14806378 -4.58997722 -0.14806378 0 0 Z " fill="#B49659" transform="translate(306,175)"/>
<path d="M0 0 C0.66 0.33 1.32 0.66 2 1 C2 1.66 2 2.32 2 3 C1.01 3 0.02 3 -1 3 C-1 3.99 -1 4.98 -1 6 C-0.01 6.33 0.98 6.66 2 7 C0 9 0 9 -3.3125 9.1875 C-6.34749675 9.03317813 -9.05721919 8.71340141 -12 8 C-11.67 6.68 -11.34 5.36 -11 4 C-8.02148438 3.65820312 -8.02148438 3.65820312 -5.04296875 3.31640625 C-2.80603607 3.02829265 -2.80603607 3.02829265 0 2 C0 1.34 0 0.68 0 0 Z " fill="#E6DB98" transform="translate(437,173)"/>
<path d="M0 0 C2.330625 0.309375 4.66125 0.61875 7.0625 0.9375 C7.78187744 1.03281006 8.50125488 1.12812012 9.24243164 1.22631836 C13.49873954 1.79262815 17.75022328 2.38657319 22 3 C22 3.33 22 3.66 22 4 C15.4 4 8.8 4 2 4 C2 8.95 2 13.9 2 19 C1.67 19 1.34 19 1 19 C0.67 12.73 0.34 6.46 0 0 Z " fill="#8D6B3B" transform="translate(236,147)"/>
<path d="M0 0 C3.12270126 2.51830747 3.94523098 3.7261549 4.75 7.75 C4.87375 9.35875 4.87375 9.35875 5 11 C2.1875 11.25 2.1875 11.25 -1 11 C-2.875 9 -2.875 9 -4 7 C-3.34 7 -2.68 7 -2 7 C-2 5.02 -2 3.04 -2 1 C-1.34 0.67 -0.68 0.34 0 0 Z " fill="#A07838" transform="translate(566,188)"/>
<path d="M0 0 C0.66 0 1.32 0 2 0 C6.06153846 6.4 6.06153846 6.4 5.75 9.4375 C5.5025 9.953125 5.255 10.46875 5 11 C4.34 10.67 3.68 10.34 3 10 C2.34 11.32 1.68 12.64 1 14 C0.34 14 -0.32 14 -1 14 C-0.95875 13.21625 -0.9175 12.4325 -0.875 11.625 C-0.71271266 8.83883881 -0.71271266 8.83883881 -3 7 C-2.01 6.67 -1.02 6.34 0 6 C-0.2784375 4.7934375 -0.2784375 4.7934375 -0.5625 3.5625 C-0.706875 2.716875 -0.85125 1.87125 -1 1 C-0.67 0.67 -0.34 0.34 0 0 Z " fill="#D7C587" transform="translate(137,156)"/>
<path d="M0 0 C1.65 0 3.3 0 5 0 C5.82638376 2.89234315 6 4.88742431 6 8 C4.54052295 7.93993922 3.08220728 7.8511311 1.625 7.75 C0.81289062 7.70359375 0.00078125 7.6571875 -0.8359375 7.609375 C-3 7 -3 7 -4.2890625 4.953125 C-4.52367187 4.30859375 -4.75828125 3.6640625 -5 3 C-4.01 3.33 -3.02 3.66 -2 4 C-1.34 2.68 -0.68 1.36 0 0 Z " fill="#BB9D58" transform="translate(179,208)"/>
<path d="M0 0 C0.763125 0.0825 1.52625 0.165 2.3125 0.25 C2.9725 1.9 3.6325 3.55 4.3125 5.25 C0.87180376 7.54379749 -0.41040301 8.25 -4.6875 8.25 C-5.375 6.5 -5.375 6.5 -5.6875 4.25 C-4.14687092 1.16874185 -3.48812938 0.32447715 0 0 Z " fill="#A2753B" transform="translate(262.6875,191.75)"/>
<path d="M0 0 C0.33 0.66 0.66 1.32 1 2 C2.98 1.67 4.96 1.34 7 1 C7 1.66 7 2.32 7 3 C7.99 2.67 8.98 2.34 10 2 C12.48046875 2.33984375 12.48046875 2.33984375 15.1875 2.9375 C16.08855469 3.13214844 16.98960937 3.32679688 17.91796875 3.52734375 C18.60503906 3.68332031 19.29210937 3.83929688 20 4 C16.7759297 5.93835805 14.72968852 6.16545362 11.015625 5.7578125 C10.08105469 5.66113281 9.14648438 5.56445312 8.18359375 5.46484375 C7.21550781 5.35269531 6.24742187 5.24054688 5.25 5.125 C4.26644531 5.02058594 3.28289062 4.91617188 2.26953125 4.80859375 C-0.15500262 4.54966295 -2.57779806 4.27977765 -5 4 C-2 2 -2 2 0 2 C0 1.34 0 0.68 0 0 Z " fill="#EAE29A" transform="translate(145,208)"/>
<path d="M0 0 C1.77706209 2.66559313 2.87548273 5.0280615 4 8 C3.34 8 2.68 8 2 8 C2 8.66 2 9.32 2 10 C-0.64738916 11.4606285 -1.89448334 12 -5 12 C-4.42365861 7.24518354 -2.44931479 4.02951788 0 0 Z " fill="#C1AC73" transform="translate(128,205)"/>
<path d="M0 0 C0.99 0.33 1.98 0.66 3 1 C3 1.33 3 1.66 3 2 C4.68029297 2.09087891 4.68029297 2.09087891 6.39453125 2.18359375 C7.86719984 2.26801424 9.33985544 2.35266149 10.8125 2.4375 C11.91948242 2.49647461 11.91948242 2.49647461 13.04882812 2.55664062 C16.23071342 2.74381035 18.96162378 2.98720793 22 4 C22 4.66 22 5.32 22 6 C21.42926758 5.83701416 20.85853516 5.67402832 20.27050781 5.50610352 C17.98346733 4.99631481 16.01035544 4.88564032 13.671875 4.90234375 C12.47304688 4.90717773 12.47304688 4.90717773 11.25 4.91210938 C10.425 4.92048828 9.6 4.92886719 8.75 4.9375 C7.90953125 4.94201172 7.0690625 4.94652344 6.203125 4.95117188 C4.13538599 4.96292039 2.06768376 4.98085478 0 5 C0 9.29 0 13.58 0 18 C-0.33 18 -0.66 18 -1 18 C-2.04559253 11.41276707 -1.83292414 6.40766041 0 0 Z " fill="#B6A872" transform="translate(491,146)"/>
<path d="M0 0 C2.64 0 5.28 0 8 0 C7.56179109 4.55737263 7.14958831 7.57653445 4 11 C3.06934867 8.39417629 2.85082593 7.35801776 3.9375 4.75 C4.4634375 3.88375 4.4634375 3.88375 5 3 C3.05000871 3.19471111 3.05000871 3.19471111 1 4 C-0.28436734 5.9837767 -0.28436734 5.9837767 -1 8 C-1.66 8 -2.32 8 -3 8 C-2.690625 7.236875 -2.38125 6.47375 -2.0625 5.6875 C-1.32106407 3.81210323 -0.63771783 1.91315348 0 0 Z " fill="#D6C585" transform="translate(353,186)"/>
<path d="M0 0 C0.66 0 1.32 0 2 0 C3.76171875 2.5546875 3.76171875 2.5546875 5.6875 5.875 C6.33074219 6.96554688 6.97398437 8.05609375 7.63671875 9.1796875 C8.08660156 10.11039063 8.53648437 11.04109375 9 12 C8.67 12.66 8.34 13.32 8 14 C7.01 14 6.02 14 5 14 C3.45713453 11.68570179 2.10007245 9.45428972 0.8125 7 C0.44769531 6.319375 0.08289063 5.63875 -0.29296875 4.9375 C-1 3 -1 3 0 0 Z " fill="#EBE3A4" transform="translate(149,133)"/>
<path d="M0 0 C2.475 0.99 2.475 0.99 5 2 C5.042721 3.66611905 5.04063832 5.33382885 5 7 C4 8 4 8 0.4375 8.0625 C-0.696875 8.041875 -1.83125 8.02125 -3 8 C-3.36923077 3.44615385 -3.36923077 3.44615385 -1.5 1.1875 C-1.005 0.795625 -0.51 0.40375 0 0 Z " fill="#AB8B4F" transform="translate(285,164)"/>
<path d="M0 0 C1.76462683 3.08809695 2 4.23312136 2 8 C1.34 8 0.68 8 0 8 C-0.33 7.01 -0.66 6.02 -1 5 C-2.32 5 -3.64 5 -5 5 C-5 6.98 -5 8.96 -5 11 C-5.99 11.33 -6.98 11.66 -8 12 C-8 8.37 -8 4.74 -8 1 C-5.36 0.67 -2.72 0.34 0 0 Z " fill="#D8CD9A" transform="translate(466,146)"/>
<path d="M0 0 C1.423125 0.495 1.423125 0.495 2.875 1 C5.77062452 2.10159191 5.77062452 2.10159191 8 2 C8 4.31 8 6.62 8 9 C4.93795671 8.66896829 3.39949096 8.39949096 1.1875 6.1875 C0 4 0 4 0 0 Z " fill="#977541" transform="translate(100,176)"/>
<path d="M0 0 C1.65 0 3.3 0 5 0 C5.33 0.99 5.66 1.98 6 3 C8.31 3.33 10.62 3.66 13 4 C12.67 4.99 12.34 5.98 12 7 C7.13103697 6.40380045 2.67209049 5.43023178 -2 4 C-1.34 3.67 -0.68 3.34 0 3 C0 2.01 0 1.02 0 0 Z M14 0 C14.33 0.99 14.66 1.98 15 3 C14.01 3.495 14.01 3.495 13 4 C12.34 3.34 11.68 2.68 11 2 C11.99 1.34 12.98 0.68 14 0 Z " fill="#C5A95E" transform="translate(497,171)"/>
<path d="M0 0 C0.66 0 1.32 0 2 0 C2 0.66 2 1.32 2 2 C1.01 2.495 1.01 2.495 0 3 C-0.46651207 5.12576782 -0.46651207 5.12576782 -0.625 7.5625 C-0.69976562 8.38878906 -0.77453125 9.21507812 -0.8515625 10.06640625 C-0.90054688 10.70449219 -0.94953125 11.34257812 -1 12 C-1.66 12 -2.32 12 -3 12 C-3 11.34 -3 10.68 -3 10 C-4.32 10.33 -5.64 10.66 -7 11 C-7.33 9.68 -7.66 8.36 -8 7 C-7.01 6.67 -6.02 6.34 -5 6 C-3.32932867 4.00334402 -1.66247014 2.00348966 0 0 Z " fill="#C7B170" transform="translate(177,156)"/>
<path d="M0 0 C0 1.98 0 3.96 0 6 C-2.31 6 -4.62 6 -7 6 C-7.33 6.99 -7.66 7.98 -8 9 C-7.979375 8.21625 -7.95875 7.4325 -7.9375 6.625 C-7.81315937 4.01885039 -7.81315937 4.01885039 -9 2 C-5.86501708 0.14223235 -3.62528568 -0.20140476 0 0 Z " fill="#D3BE79" transform="translate(474,159)"/>
<path d="M0 0 C-0.66 1.98 -1.32 3.96 -2 6 C-7.41538462 6.36923077 -7.41538462 6.36923077 -10.375 4.5 C-10.91125 4.005 -11.4475 3.51 -12 3 C-7.89542386 0.01485372 -5.02254631 -0.2954439 0 0 Z " fill="#AA8440" transform="translate(557,159)"/>
<path d="M0 0 C-0.08715017 1.93833996 -0.19532964 3.8757429 -0.3125 5.8125 C-0.37050781 6.89144531 -0.42851562 7.97039062 -0.48828125 9.08203125 C-1 12 -1 12 -2.34375 13.84375 C-4.75045513 15.52390264 -7.12619603 15.68068845 -10 16 C-9.401875 15.566875 -8.80375 15.13375 -8.1875 14.6875 C-4.34784851 11.90777008 -4.34784851 11.90777008 -2.48828125 7.73828125 C-2.43027344 6.93777344 -2.37226563 6.13726562 -2.3125 5.3125 C-2.24675781 4.50425781 -2.18101562 3.69601563 -2.11328125 2.86328125 C-2.07589844 2.24839844 -2.03851563 1.63351563 -2 1 C-4.31 1.66 -6.62 2.32 -9 3 C-8.67 2.01 -8.34 1.02 -8 0 C-4.71023192 -1.09658936 -3.28696233 -0.79953138 0 0 Z " fill="#B0996D" transform="translate(309,180)"/>
<path d="M0 0 C0.99 0 1.98 0 3 0 C4.20272819 2.40545638 4.10071472 3.94996953 4.0625 6.625 C4.05347656 7.44226563 4.04445312 8.25953125 4.03515625 9.1015625 C4.02355469 9.72804687 4.01195312 10.35453125 4 11 C2.02 11.99 2.02 11.99 0 13 C0 8.71 0 4.42 0 0 Z " fill="#C0A15F" transform="translate(151,148)"/>
<path d="M0 0 C0.66 0 1.32 0 2 0 C2 11.22 2 22.44 2 34 C0.35 34 -1.3 34 -3 34 C-1.02 33.505 -1.02 33.505 1 33 C0.8818344 28.90637894 0.75759216 24.81299233 0.62768555 20.71972656 C0.58434154 19.3268741 0.54266604 17.93396869 0.50268555 16.54101562 C0.44497068 14.54023349 0.38078131 12.53964141 0.31640625 10.5390625 C0.27974854 9.33459473 0.24309082 8.13012695 0.20532227 6.88916016 C0.18947013 4.06003633 0.18947013 4.06003633 -1 2 C-0.67 1.34 -0.34 0.68 0 0 Z " fill="#E4DDAA" transform="translate(401,168)"/>
<path d="M0 0 C4.4062186 1.34634457 6.43077702 3.19374374 9 7 C9 7.66 9 8.32 9 9 C8.01 9.33 7.02 9.66 6 10 C5.87625 9.195625 5.7525 8.39125 5.625 7.5625 C5.41875 6.716875 5.2125 5.87125 5 5 C4.34 4.67 3.68 4.34 3 4 C3 4.66 3 5.32 3 6 C2.34 6 1.68 6 1 6 C0.67 6.99 0.34 7.98 0 9 C-1.32 8.34 -2.64 7.68 -4 7 C-2.68 7 -1.36 7 0 7 C0 4.69 0 2.38 0 0 Z " fill="#9E7B49" transform="translate(262,144)"/>
<path d="M0 0 C0.33 1.32 0.66 2.64 1 4 C-4.94 4.495 -4.94 4.495 -11 5 C-11 4.01 -11 3.02 -11 2 C-3.375 0 -3.375 0 0 0 Z " fill="#99692D" transform="translate(586,196)"/>
<path d="M0 0 C0.99 0.99 1.98 1.98 3 3 C1.84826645 5.46800047 0.95216435 7.04783565 -1 9 C-3.625 9.625 -3.625 9.625 -6 10 C-5.505 9.1028125 -5.505 9.1028125 -5 8.1875 C-3.79212012 5.94613529 -3.79212012 5.94613529 -4 3 C-3.01 3 -2.02 3 -1 3 C-0.67 2.01 -0.34 1.02 0 0 Z " fill="#AA8944" transform="translate(191,192)"/>
<path d="M0 0 C0.5775 0.78375 1.155 1.5675 1.75 2.375 C3.82897637 4.80047244 5.09040333 5.85694417 8 7 C7.01 7 6.02 7 5 7 C5 8.32 5 9.64 5 11 C2.21650144 9.9441902 0.99590854 8.99481748 -0.875 6.625 C-2 4 -2 4 -1.1875 1.6875 C-0.795625 1.130625 -0.40375 0.57375 0 0 Z " fill="#DACA8E" transform="translate(161,154)"/>
<path d="M0 0 C3.3 0 6.6 0 10 0 C10 1.32 10 2.64 10 4 C3.25 5.125 3.25 5.125 1 4 C0.67 2.68 0.34 1.36 0 0 Z " fill="#EEE394" transform="translate(419,197)"/>
<path d="M0 0 C0 0.66 0 1.32 0 2 C-1.45537568 2.83848804 -2.91440373 3.67063934 -4.375 4.5 C-5.59316406 5.19609375 -5.59316406 5.19609375 -6.8359375 5.90625 C-9 7 -9 7 -11 7 C-10.75 4.625 -10.75 4.625 -10 2 C-6.88390372 -0.42363044 -3.82627315 -0.17392151 0 0 Z " fill="#D6BF7D" transform="translate(139,133)"/>
<path d="M0 0 C0.66 0 1.32 0 2 0 C2 2.31 2 4.62 2 7 C3.32 6.34 4.64 5.68 6 5 C6 6.32 6 7.64 6 9 C7.98 9 9.96 9 12 9 C12 9.33 12 9.66 12 10 C8.37 10 4.74 10 1 10 C0.67 6.7 0.34 3.4 0 0 Z " fill="#876032" transform="translate(228,192)"/>
<path d="M0 0 C0.66 0.66 1.32 1.32 2 2 C1.34 2 0.68 2 0 2 C-0.13277344 2.63808594 -0.26554688 3.27617187 -0.40234375 3.93359375 C-0.57894531 4.75988281 -0.75554688 5.58617187 -0.9375 6.4375 C-1.11152344 7.26121094 -1.28554688 8.08492187 -1.46484375 8.93359375 C-2 11 -2 11 -3 12 C-3.23363881 13.84891946 -3.41303635 15.70488031 -3.5625 17.5625 C-3.64628906 18.57441406 -3.73007812 19.58632812 -3.81640625 20.62890625 C-3.87699219 21.41136719 -3.93757812 22.19382813 -4 23 C-4.33 23 -4.66 23 -5 23 C-5.31670234 15.30530609 -5.43039388 8.99272598 -2 2 C-1.34 1.34 -0.68 0.68 0 0 Z " fill="#9D7F51" transform="translate(563,164)"/>
<path d="M0 0 C2.475 0.99 2.475 0.99 5 2 C4.34 4.31 3.68 6.62 3 9 C2.34 8.67 1.68 8.34 1 8 C1 7.34 1 6.68 1 6 C-1.475 5.01 -1.475 5.01 -4 4 C-3.01 3.67 -2.02 3.34 -1 3 C-0.67 2.01 -0.34 1.02 0 0 Z " fill="#D1BC74" transform="translate(351,160)"/>
<path d="M0 0 C4.95 0 9.9 0 15 0 C15 0.66 15 1.32 15 2 C9.31302429 2.91397824 4.68697571 2.91397824 -1 2 C-0.67 1.34 -0.34 0.68 0 0 Z " fill="#DED295" transform="translate(148,165)"/>
<path d="M0 0 C0.66 0 1.32 0 2 0 C2 1.32 2 2.64 2 4 C4.31 4 6.62 4 9 4 C9.33 4.66 9.66 5.32 10 6 C8.20866022 6.05391993 6.41686101 6.09275571 4.625 6.125 C3.62726563 6.14820313 2.62953125 6.17140625 1.6015625 6.1953125 C-1 6 -1 6 -3 4 C-1.625 2 -1.625 2 0 0 Z " fill="#C2AD73" transform="translate(492,171)"/>
<path d="M0 0 C0.66 0 1.32 0 2 0 C2.33 1.65 2.66 3.3 3 5 C2.06027344 5.30744141 2.06027344 5.30744141 1.1015625 5.62109375 C0.28429687 5.89050781 -0.53296875 6.15992188 -1.375 6.4375 C-2.18710937 6.70433594 -2.99921875 6.97117188 -3.8359375 7.24609375 C-6.01031799 7.95179729 -6.01031799 7.95179729 -8 9 C-7.67 7.35 -7.34 5.7 -7 4 C-6.030625 3.71125 -5.06125 3.4225 -4.0625 3.125 C-0.89335797 2.35785318 -0.89335797 2.35785318 0 0 Z " fill="#AF915C" transform="translate(298,159)"/>
<path d="M0 0 C6.34646498 0.41373019 10.6078452 0.81693354 15.48828125 5.01953125 C15.15828125 6.00953125 14.82828125 6.99953125 14.48828125 8.01953125 C14.24078125 7.38015625 13.99328125 6.74078125 13.73828125 6.08203125 C12.70508834 3.88939366 12.70508834 3.88939366 10.73046875 3.38671875 C7.37966541 2.83798092 4.11301926 3.05422198 0.73046875 3.1796875 C-1.51171875 3.01953125 -1.51171875 3.01953125 -3.51171875 1.01953125 C-2.51171875 0.01953125 -2.51171875 0.01953125 0 0 Z " fill="#B8A06F" transform="translate(298.51171875,156.98046875)"/>
<path d="M0 0 C2.64 0 5.28 0 8 0 C7.34 0.66 6.68 1.32 6 2 C5.01 2 4.02 2 3 2 C2.67 3.65 2.34 5.3 2 7 C0.35 7.33 -1.3 7.66 -3 8 C-3.33 7.34 -3.66 6.68 -4 6 C-3.01 5.67 -2.02 5.34 -1 5 C-0.67 3.35 -0.34 1.7 0 0 Z " fill="#DACC8B" transform="translate(137,209)"/>
<path d="M0 0 C2.00720923 0.28674418 4.0085944 0.61866701 6 1 C5.01 1.495 5.01 1.495 4 2 C4 3.65 4 5.3 4 7 C2.35 7.33 0.7 7.66 -1 8 C-1.04241723 5.66705225 -1.04092937 3.33297433 -1 1 C-0.67 0.67 -0.34 0.34 0 0 Z " fill="#DCCE8F" transform="translate(147,146)"/>
<path d="M0 0 C0.66 0 1.32 0 2 0 C2 3.3 2 6.6 2 10 C1.01 9.67 0.02 9.34 -1 9 C-1.625 6.1875 -1.625 6.1875 -2 3 C-1.34 2.01 -0.68 1.02 0 0 Z " fill="#AF8E52" transform="translate(142,149)"/>
<path d="M0 0 C0.66 0.33 1.32 0.66 2 1 C0 4 0 4 -3 5 C-5.56039231 8.55610043 -5.5765018 12.76501798 -6 17 C-6.33 17 -6.66 17 -7 17 C-7.56862745 7.33333333 -7.56862745 7.33333333 -4 3 C-1.8125 1.1875 -1.8125 1.1875 0 0 Z " fill="#EAE5AA" transform="translate(417,178)"/>
<path d="M0 0 C2.64 0 5.28 0 8 0 C8.33 0.99 8.66 1.98 9 3 C6.69 3.66 4.38 4.32 2 5 C1.34 4.34 0.68 3.68 0 3 C0 2.01 0 1.02 0 0 Z " fill="#CBB46A" transform="translate(338,159)"/>
<path d="M0 0 C0 0.33 0 0.66 0 1 C-2.97 1 -5.94 1 -9 1 C-9.33 1.99 -9.66 2.98 -10 4 C-10.33 2.68 -10.66 1.36 -11 0 C-12.32 -0.33 -13.64 -0.66 -15 -1 C-9.53891111 -2.4002792 -5.30723432 -1.42705634 0 0 Z " fill="#C0A473" transform="translate(517,144)"/>
<path d="M0 0 C1.2065625 0.0309375 1.2065625 0.0309375 2.4375 0.0625 C3.0975 1.7125 3.7575 3.3625 4.4375 5.0625 C2.1275 5.3925 -0.1825 5.7225 -2.5625 6.0625 C-2.2325 4.7425 -1.9025 3.4225 -1.5625 2.0625 C-2.2225 1.7325 -2.8825 1.4025 -3.5625 1.0625 C-2.5625 0.0625 -2.5625 0.0625 0 0 Z " fill="#C3A565" transform="translate(315.5625,196.9375)"/>
<path d="M0 0 C-0.33 0.66 -0.66 1.32 -1 2 C-1.66 2 -2.32 2 -3 2 C-3.33 3.65 -3.66 5.3 -4 7 C-4.99 6.67 -5.98 6.34 -7 6 C-7 4.02 -7 2.04 -7 0 C-2.25 -1.125 -2.25 -1.125 0 0 Z " fill="#F3E995" transform="translate(422,164)"/>
<path d="M0 0 C0.33 0 0.66 0 1 0 C1 2.64 1 5.28 1 8 C-0.32 8 -1.64 8 -3 8 C-3.33 6.02 -3.66 4.04 -4 2 C-2.68 2 -1.36 2 0 2 C0 1.34 0 0.68 0 0 Z " fill="#A77836" transform="translate(261,143)"/>
<path d="M0 0 C0.33 0.66 0.66 1.32 1 2 C-3.30769231 6.92307692 -3.30769231 6.92307692 -6.8125 7.3125 C-7.8953125 7.1578125 -7.8953125 7.1578125 -9 7 C-6.19195732 4.03595495 -3.81684226 1.55500981 0 0 Z " fill="#C4B076" transform="translate(133,163)"/>
<path d="M0 0 C0.99 0.33 1.98 0.66 3 1 C2.835 2.03125 2.67 3.0625 2.5 4.125 C2.06678152 7.48244326 1.91764297 10.62336157 2 14 C0.68 13.34 -0.64 12.68 -2 12 C-1.34 12 -0.68 12 0 12 C-0.08378906 11.21753906 -0.16757813 10.43507812 -0.25390625 9.62890625 C-0.35574219 8.61699219 -0.45757812 7.60507813 -0.5625 6.5625 C-0.66691406 5.55316406 -0.77132812 4.54382813 -0.87890625 3.50390625 C-0.91886719 2.67761719 -0.95882812 1.85132813 -1 1 C-0.67 0.67 -0.34 0.34 0 0 Z " fill="#C7B176" transform="translate(144,147)"/>
<path d="M0 0 C1.65 0 3.3 0 5 0 C4.34 0.66 3.68 1.32 3 2 C3.99 2.33 4.98 2.66 6 3 C5.67 3.99 5.34 4.98 5 6 C3.35 6 1.7 6 0 6 C0 4.02 0 2.04 0 0 Z " fill="#D5C895" transform="translate(453,159)"/>
<path d="M0 0 C0.103125 0.639375 0.20625 1.27875 0.3125 1.9375 C0.539375 2.618125 0.76625 3.29875 1 4 C1.99 4.33 2.98 4.66 4 5 C3.67 6.32 3.34 7.64 3 9 C0.5 7.1875 0.5 7.1875 -2 5 C-2 4.01 -2 3.02 -2 2 C-1.34 2 -0.68 2 0 2 C0 1.34 0 0.68 0 0 Z " fill="#BEA668" transform="translate(124,196)"/>
<path d="M0 0 C1.32 1.32 2.64 2.64 4 4 C5.32 3.01 6.64 2.02 8 1 C7.4140625 7.15234375 7.4140625 7.15234375 7 9 C6.01 9.495 6.01 9.495 5 10 C2.35534962 6.8745041 1.15585285 3.91211733 0 0 Z " fill="#A88E60" transform="translate(113,172)"/>
<path d="M0 0 C1.99097846 2.98646769 2.94124926 5.59687262 4 9 C3 10 3 10 1.15234375 10.09765625 C-0.8984375 10.06510417 -2.94921875 10.03255208 -5 10 C-4.67 8.68 -4.34 7.36 -4 6 C-4 6.99 -4 7.98 -4 9 C-2.35 9 -0.7 9 1 9 C0.67 6.03 0.34 3.06 0 0 Z " fill="#CDC290" transform="translate(358,164)"/>
<path d="M0 0 C1.65 0.33 3.3 0.66 5 1 C5.33 1.99 5.66 2.98 6 4 C6.66 4.33 7.32 4.66 8 5 C5 6 5 6 1.8125 4.5625 C0.884375 4.046875 -0.04375 3.53125 -1 3 C-0.67 2.01 -0.34 1.02 0 0 Z " fill="#AD8847" transform="translate(184,171)"/>
<path d="M0 0 C0.66 0 1.32 0 2 0 C2.33 1.65 2.66 3.3 3 5 C2.360625 5.12375 1.72125 5.2475 1.0625 5.375 C0.381875 5.58125 -0.29875 5.7875 -1 6 C-1.33 6.66 -1.66 7.32 -2 8 C-2.66 7.01 -3.32 6.02 -4 5 C-6.05003955 3.80767387 -6.05003955 3.80767387 -8 3 C-5.625 2.375 -5.625 2.375 -3 2 C-2.34 2.66 -1.68 3.32 -1 4 C-0.67 2.68 -0.34 1.36 0 0 Z " fill="#B29B63" transform="translate(309,161)"/>
<path d="M0 0 C-3.76435592 2.49055871 -6.86617377 2.03090984 -11.25 1.625 C-12.51328125 1.51414063 -13.7765625 1.40328125 -15.078125 1.2890625 C-16.04234375 1.19367188 -17.0065625 1.09828125 -18 1 C-18 0.67 -18 0.34 -18 0 C-11.74692761 -0.83288874 -6.23182639 -1.03863773 0 0 Z " fill="#E1DAA9" transform="translate(165,212)"/>
<path d="M0 0 C0.33 0.66 0.66 1.32 1 2 C2.32 2 3.64 2 5 2 C5 2.66 5 3.32 5 4 C2.36 4 -0.28 4 -3 4 C-3.33 3.01 -3.66 2.02 -4 1 C-2.68 0.67 -1.36 0.34 0 0 Z " fill="#966C39" transform="translate(197,192)"/>
<path d="M0 0 C2.64 0 5.28 0 8 0 C7.67 0.66 7.34 1.32 7 2 C4.03 1.505 4.03 1.505 1 1 C0.67 2.98 0.34 4.96 0 7 C-0.99 7.33 -1.98 7.66 -3 8 C-2.690625 7.236875 -2.38125 6.47375 -2.0625 5.6875 C-1.32106407 3.81210323 -0.63771783 1.91315348 0 0 Z " fill="#C6BB8B" transform="translate(353,186)"/>
<path d="M0 0 C1.98 0 3.96 0 6 0 C5.01 0.495 5.01 0.495 4 1 C4 1.99 4 2.98 4 4 C4.66 4.33 5.32 4.66 6 5 C3.03 4.505 3.03 4.505 0 4 C0 2.68 0 1.36 0 0 Z " fill="#9B6F34" transform="translate(575,158)"/>
<path d="M0 0 C0.99 0.33 1.98 0.66 3 1 C2.01 1.495 2.01 1.495 1 2 C1 2.99 1 3.98 1 5 C-0.5 6.6875 -0.5 6.6875 -2 8 C-2.66 7.67 -3.32 7.34 -4 7 C-3.67 6.01 -3.34 5.02 -3 4 C-2.34 4 -1.68 4 -1 4 C-1.33 3.01 -1.66 2.02 -2 1 C-1.34 0.67 -0.68 0.34 0 0 Z " fill="#BFA260" transform="translate(180,154)"/>
<path d="M0 0 C0 1.98 0 3.96 0 6 C-1.9375 5.6875 -1.9375 5.6875 -4 5 C-4.33 4.01 -4.66 3.02 -5 2 C-2 0 -2 0 0 0 Z " fill="#9F6F2C" transform="translate(108,178)"/>
<path d="M0 0 C0 1.65 0 3.3 0 5 C-0.66 3.68 -1.32 2.36 -2 1 C-4.31 1.66 -6.62 2.32 -9 3 C-8.67 2.01 -8.34 1.02 -8 0 C-4.71023192 -1.09658936 -3.28696233 -0.79953138 0 0 Z " fill="#BBA16E" transform="translate(309,180)"/>
<path d="M0 0 C1.65 0 3.3 0 5 0 C4.67 0.99 4.34 1.98 4 3 C4.66 3.33 5.32 3.66 6 4 C3.69 4 1.38 4 -1 4 C-0.67 2.68 -0.34 1.36 0 0 Z " fill="#ECE291" transform="translate(426,177)"/>
<path d="M0 0 C0.99 0.33 1.98 0.66 3 1 C3 2.65 3 4.3 3 6 C1.68 6 0.36 6 -1 6 C-0.67 4.02 -0.34 2.04 0 0 Z " fill="#D8BF77" transform="translate(356,167)"/>
<path d="M0 0 C0.33 1.32 0.66 2.64 1 4 C-0.65 4.33 -2.3 4.66 -4 5 C-4.66 3.68 -5.32 2.36 -6 1 C-3 0 -3 0 0 0 Z " fill="#B79D4A" transform="translate(540,158)"/>
<path d="M0 0 C1.65 0 3.3 0 5 0 C2.48169253 3.12270126 1.2738451 3.94523098 -2.75 4.75 C-4.35875 4.87375 -4.35875 4.87375 -6 5 C-2.25 3 -2.25 3 0 3 C0 2.01 0 1.02 0 0 Z " fill="#B49F73" transform="translate(516,172)"/>
<path d="M0 0 C2.475 0.495 2.475 0.495 5 1 C5 2.98 5 4.96 5 7 C4.34 7 3.68 7 3 7 C0 2.61538462 0 2.61538462 0 0 Z " fill="#AD9762" transform="translate(117,193)"/>
<path d="M0 0 C1.65 0 3.3 0 5 0 C5 1.98 5 3.96 5 6 C3.35 6 1.7 6 0 6 C0.33 5.34 0.66 4.68 1 4 C1.66 4 2.32 4 3 4 C3 3.34 3 2.68 3 2 C2.01 1.34 1.02 0.68 0 0 Z " fill="#CABC90" transform="translate(469,159)"/>
<path d="M0 0 C-0.33 0.99 -0.66 1.98 -1 3 C-4.76624671 4.25541557 -6.37188934 3.37061958 -10 2 C-6.5980513 -0.09350689 -3.94727588 -0.17942163 0 0 Z " fill="#C8AB6B" transform="translate(500,144)"/>
<path d="M0 0 C0.66 0.33 1.32 0.66 2 1 C1.67 4.63 1.34 8.26 1 12 C0.34 11.67 -0.32 11.34 -1 11 C-0.67 8.36 -0.34 5.72 0 3 C-0.66 2.67 -1.32 2.34 -2 2 C-1.34 2 -0.68 2 0 2 C0 1.34 0 0.68 0 0 Z " fill="#E6D8A0" transform="translate(374,142)"/>
<path d="M0 0 C2.38564077 0.57584432 4.66682784 1.22227595 7 2 C6.67 2.99 6.34 3.98 6 5 C2.83884224 3.63016497 2.0072908 3.0109362 0 0 Z " fill="#B69B68" transform="translate(307,197)"/>
<path d="M0 0 C0.99 0.33 1.98 0.66 3 1 C2.67 2.32 2.34 3.64 2 5 C1.01 5 0.02 5 -1 5 C-0.67 3.35 -0.34 1.7 0 0 Z " fill="#D7BE70" transform="translate(355,188)"/>
<path d="M0 0 C1.0625 1.875 1.0625 1.875 2 4 C1.67 4.66 1.34 5.32 1 6 C-0.65 6 -2.3 6 -4 6 C-4 4 -4 4 -2 1.875 C-1.34 1.25625 -0.68 0.6375 0 0 Z " fill="#BDA56A" transform="translate(515,164)"/>
<path d="M0 0 C0.66 0 1.32 0 2 0 C2 2.64 2 5.28 2 8 C1.34 7.67 0.68 7.34 0 7 C0 5.68 0 4.36 0 3 C-0.66 2.67 -1.32 2.34 -2 2 C-1.34 2 -0.68 2 0 2 C0 1.34 0 0.68 0 0 Z " fill="#AB8B44" transform="translate(270,154)"/>
<path d="" fill="#000000" transform="translate(0,0)"/>
<path d="" fill="#000000" transform="translate(0,0)"/>
<path d="" fill="#000000" transform="translate(0,0)"/>
<path d="" fill="#000000" transform="translate(0,0)"/>
<path d="" fill="#000000" transform="translate(0,0)"/>
<path d="" fill="#000000" transform="translate(0,0)"/>
<path d="" fill="#000000" transform="translate(0,0)"/>
<path d="" fill="#000000" transform="translate(0,0)"/>
<path d="" fill="#000000" transform="translate(0,0)"/>
<path d="" fill="#000000" transform="translate(0,0)"/>
<path d="" fill="#000000" transform="translate(0,0)"/>
<path d="" fill="#000000" transform="translate(0,0)"/>
<path d="" fill="#000000" transform="translate(0,0)"/>
<path d="" fill="#000000" transform="translate(0,0)"/>
<path d="" fill="#000000" transform="translate(0,0)"/>
<path d="" fill="#000000" transform="translate(0,0)"/>
<path d="" fill="#000000" transform="translate(0,0)"/>
<path d="" fill="#000000" transform="translate(0,0)"/>
<path d="" fill="#000000" transform="translate(0,0)"/>
<path d="" fill="#000000" transform="translate(0,0)"/>
<path d="" fill="#000000" transform="translate(0,0)"/>
<path d="" fill="#000000" transform="translate(0,0)"/>
<path d="" fill="#000000" transform="translate(0,0)"/>
<path d="" fill="#000000" transform="translate(0,0)"/>
<path d="" fill="#000000" transform="translate(0,0)"/>
<path d="" fill="#000000" transform="translate(0,0)"/>
<path d="" fill="#000000" transform="translate(0,0)"/>
<path d="" fill="#000000" transform="translate(0,0)"/>
<path d="" fill="#000000" transform="translate(0,0)"/>
<path d="" fill="#000000" transform="translate(0,0)"/>
<path d="" fill="#000000" transform="translate(0,0)"/>
<path d="" fill="#000000" transform="translate(0,0)"/>
<path d="" fill="#FFFF80" transform="translate(0,0)"/>
<path d="" fill="#000000" transform="translate(0,0)"/>
<path d="" fill="#000000" transform="translate(0,0)"/>
<path d="" fill="#000000" transform="translate(0,0)"/>
<path d="" fill="#000000" transform="translate(0,0)"/>
<path d="" fill="#000000" transform="translate(0,0)"/>
<path d="" fill="#000000" transform="translate(0,0)"/>
<path d="" fill="#000000" transform="translate(0,0)"/>
<path d="" fill="#000000" transform="translate(0,0)"/>
<path d="" fill="#000000" transform="translate(0,0)"/>
<path d="" fill="#000000" transform="translate(0,0)"/>
<path d="" fill="#000000" transform="translate(0,0)"/>
<path d="" fill="#000000" transform="translate(0,0)"/>
<path d="" fill="#000000" transform="translate(0,0)"/>
<path d="" fill="#000000" transform="translate(0,0)"/>
<path d="" fill="#000000" transform="translate(0,0)"/>
<path d="" fill="#000000" transform="translate(0,0)"/>
<path d="" fill="#000000" transform="translate(0,0)"/>
<path d="" fill="#000000" transform="translate(0,0)"/>
<path d="" fill="#000000" transform="translate(0,0)"/>
<path d="" fill="#000000" transform="translate(0,0)"/>
<path d="" fill="#000000" transform="translate(0,0)"/>
<path d="" fill="#000000" transform="translate(0,0)"/>
<path d="" fill="#000000" transform="translate(0,0)"/>
<path d="" fill="#000000" transform="translate(0,0)"/>
<path d="" fill="#000000" transform="translate(0,0)"/>
<path d="" fill="#000000" transform="translate(0,0)"/>
<path d="" fill="#000000" transform="translate(0,0)"/>
<path d="" fill="#000000" transform="translate(0,0)"/>
<path d="" fill="#000000" transform="translate(0,0)"/>
<path d="" fill="#000000" transform="translate(0,0)"/>
<path d="" fill="#000000" transform="translate(0,0)"/>
<path d="" fill="#000000" transform="translate(0,0)"/>
<path d="" fill="#000000" transform="translate(0,0)"/>
<path d="" fill="#000000" transform="translate(0,0)"/>
<path d="" fill="#000000" transform="translate(0,0)"/>
<path d="" fill="#000000" transform="translate(0,0)"/>
<path d="" fill="#000000" transform="translate(0,0)"/>
<path d="" fill="#000000" transform="translate(0,0)"/>
<path d="" fill="#000000" transform="translate(0,0)"/>
<path d="" fill="#000000" transform="translate(0,0)"/>
<path d="" fill="#000000" transform="translate(0,0)"/>
<path d="" fill="#000000" transform="translate(0,0)"/>
<path d="" fill="#000000" transform="translate(0,0)"/>
<path d="" fill="#000000" transform="translate(0,0)"/>
<path d="" fill="#000000" transform="translate(0,0)"/>
<path d="" fill="#000000" transform="translate(0,0)"/>
<path d="" fill="#000000" transform="translate(0,0)"/>
<path d="" fill="#000000" transform="translate(0,0)"/>
<path d="" fill="#000000" transform="translate(0,0)"/>
<path d="" fill="#000000" transform="translate(0,0)"/>
<path d="" fill="#000000" transform="translate(0,0)"/>
<path d="" fill="#000000" transform="translate(0,0)"/>
</svg>
